<?xml version="1.0" encoding="utf-8"?>
<!-- Generator: Adobe Illustrator 26.3.1, SVG Export Plug-In . SVG Version: 6.00 Build 0)  -->
<svg version="1.1" id="Layer_1" xmlns="http://www.w3.org/2000/svg" xmlns:xlink="http://www.w3.org/1999/xlink" x="0px" y="0px"
	 viewBox="0 0 250 250" style="enable-background:new 0 0 250 250;" xml:space="preserve">
<style type="text/css">
	.st0{fill:#DD0031;}
	.st1{fill:#C3002F;}
	.st2{fill:#FFFFFF;}
</style>
<g>
	<polygon class="st0" points="125,0 125,0 125,0 8.6,41.5 26.4,195.4 125,250 125,250 125,250 223.6,195.4 241.4,41.5 	"/>
	<polygon class="st1" points="125,0 125,27.8 125,27.6 125,154.2 125,154.2 125,250 125,250 223.6,195.4 241.4,41.5 	"/>
	<path class="st2" d="M125,27.6L52.3,190.7l0,0h27.1l0,0L94,154.2h61.7l14.6,36.5l0,0h27.1l0,0L125,27.6L125,27.6L125,27.6L125,27.6
		L125,27.6z M146.2,131.7h-42.5L125,80.6L146.2,131.7z"/>
</g>
</svg>
