<?xml version="1.0" encoding="UTF-8" standalone="no"?>
<!DOCTYPE svg PUBLIC "-//W3C//DTD SVG 1.1//EN" "http://www.w3.org/Graphics/SVG/1.1/DTD/svg11.dtd">
<!-- Created with Vectornator (http://vectornator.io/) -->
<svg height="100%" stroke-miterlimit="10" style="fill-rule:nonzero;clip-rule:evenodd;stroke-linecap:round;stroke-linejoin:round;" version="1.1" viewBox="0 0 297.675 419.58" width="100%" xml:space="preserve" xmlns="http://www.w3.org/2000/svg" xmlns:vectornator="http://vectornator.io" xmlns:xlink="http://www.w3.org/1999/xlink">
<defs/>
<g id="Ebene-1" vectornator:layerName="Ebene 1">
<path d="M147.142 52.6867C149.338 50.3127 152.675 49.9779 154.595 51.9389C156.516 53.8998 156.292 57.4139 154.095 59.7879C151.899 62.1618 148.562 62.4966 146.642 60.5357C144.722 58.5747 144.946 55.0606 147.142 52.6867Z" fill="#0e1718" fill-rule="nonzero" opacity="1" stroke="none"/>
<path d="M159.55 65.9316C161.747 63.5577 165.084 63.2229 167.004 65.1838C168.924 67.1447 168.7 70.6589 166.503 73.0328C164.307 75.4068 160.97 75.7416 159.05 73.7806C157.13 71.8197 157.354 68.3056 159.55 65.9316Z" fill="#0e1718" fill-rule="nonzero" opacity="1" stroke="none"/>
<path d="M171.662 78.4121C173.859 76.0382 177.196 75.7034 179.116 77.6643C181.036 79.6253 180.812 83.1394 178.615 85.5133C176.419 87.8873 173.082 88.2221 171.162 86.2611C169.242 84.3002 169.466 80.7861 171.662 78.4121Z" fill="#0e1718" fill-rule="nonzero" opacity="1" stroke="none"/>
<path d="M184.07 91.6571C186.267 89.2831 189.604 88.9483 191.524 90.9093C193.444 92.8702 193.22 96.3843 191.024 98.7583C188.827 101.132 185.49 101.467 183.57 99.5061C181.65 97.5451 181.874 94.031 184.07 91.6571Z" fill="#0e1718" fill-rule="nonzero" opacity="1" stroke="none"/>
<path d="M196.205 103.316C198.401 100.942 201.738 100.608 203.658 102.568C205.578 104.529 205.354 108.044 203.158 110.417C200.961 112.791 197.624 113.126 195.704 111.165C193.784 109.204 194.008 105.69 196.205 103.316Z" fill="#0e1718" fill-rule="nonzero" opacity="1" stroke="none"/>
<path d="M209.208 116.214C211.405 113.84 214.742 113.506 216.662 115.467C218.582 117.427 218.358 120.942 216.162 123.316C213.965 125.689 210.628 126.024 208.708 124.063C206.788 122.102 207.012 118.588 209.208 116.214Z" fill="#0e1718" fill-rule="nonzero" opacity="1" stroke="none"/>
<path d="M222.696 129.524C224.892 127.15 228.229 126.816 230.149 128.777C232.07 130.738 231.846 134.252 229.649 136.626C227.453 139 224.116 139.334 222.196 137.373C220.276 135.412 220.5 131.898 222.696 129.524Z" fill="#0e1718" fill-rule="nonzero" opacity="1" stroke="none"/>
<path d="M235.104 142.769C237.301 140.395 240.638 140.061 242.558 142.022C244.478 143.982 244.254 147.497 242.057 149.871C239.861 152.244 236.524 152.579 234.604 150.618C232.684 148.657 232.908 145.143 235.104 142.769Z" fill="#0e1718" fill-rule="nonzero" opacity="1" stroke="none"/>
<path d="M247.216 155.25C249.413 152.876 252.75 152.541 254.67 154.502C256.59 156.463 256.366 159.977 254.17 162.351C251.973 164.725 248.636 165.06 246.716 163.099C244.796 161.138 245.02 157.624 247.216 155.25Z" fill="#0e1718" fill-rule="nonzero" opacity="1" stroke="none"/>
<path d="M259.625 168.495C261.821 166.121 265.158 165.786 267.078 167.747C268.998 169.708 268.774 173.222 266.578 175.596C264.381 177.97 261.044 178.305 259.124 176.344C257.204 174.383 257.428 170.869 259.625 168.495Z" fill="#0e1718" fill-rule="nonzero" opacity="1" stroke="none"/>
<path d="M271.759 180.154C273.955 177.78 277.292 177.445 279.212 179.406C281.132 181.367 280.908 184.881 278.712 187.255C276.515 189.629 273.178 189.964 271.258 188.003C269.338 186.042 269.562 182.528 271.759 180.154Z" fill="#0e1718" fill-rule="nonzero" opacity="1" stroke="none"/>
<path d="M284.762 193.052C286.959 190.678 290.296 190.343 292.216 192.304C294.136 194.265 293.912 197.779 291.716 200.153C289.519 202.527 286.182 202.862 284.262 200.901C282.342 198.94 282.566 195.426 284.762 193.052Z" fill="#0e1718" fill-rule="nonzero" opacity="1" stroke="none"/>
<path d="M133.459 66.7397C135.655 64.3657 138.992 64.0309 140.912 65.9918C142.832 67.9528 142.608 71.4669 140.412 73.8409C138.216 76.2148 134.879 76.5496 132.958 74.5887C131.038 72.6277 131.262 69.1136 133.459 66.7397Z" fill="#0e1718" fill-rule="nonzero" opacity="1" stroke="none"/>
<path d="M145.867 79.9846C148.063 77.6106 151.4 77.2758 153.321 79.2368C155.241 81.1977 155.017 84.7118 152.82 87.0858C150.624 89.4597 147.287 89.7945 145.367 87.8336C143.447 85.8727 143.671 82.3585 145.867 79.9846Z" fill="#0e1718" fill-rule="nonzero" opacity="1" stroke="none"/>
<path d="M157.979 92.4651C160.175 90.0912 163.512 89.7564 165.433 91.7173C167.353 93.6782 167.129 97.1924 164.932 99.5663C162.736 101.94 159.399 102.275 157.479 100.314C155.559 98.3532 155.783 94.8391 157.979 92.4651Z" fill="#0e1718" fill-rule="nonzero" opacity="1" stroke="none"/>
<path d="M170.387 105.71C172.584 103.336 175.921 103.001 177.841 104.962C179.761 106.923 179.537 110.437 177.341 112.811C175.144 115.185 171.807 115.52 169.887 113.559C167.967 111.598 168.191 108.084 170.387 105.71Z" fill="#0e1718" fill-rule="nonzero" opacity="1" stroke="none"/>
<path d="M182.521 117.369C184.718 114.995 188.055 114.66 189.975 116.621C191.895 118.582 191.671 122.097 189.475 124.47C187.278 126.844 183.941 127.179 182.021 125.218C180.101 123.257 180.325 119.743 182.521 117.369Z" fill="#0e1718" fill-rule="nonzero" opacity="1" stroke="none"/>
<path d="M195.525 130.267C197.722 127.893 201.059 127.559 202.979 129.519C204.899 131.48 204.675 134.995 202.478 137.368C200.282 139.742 196.945 140.077 195.025 138.116C193.105 136.155 193.329 132.641 195.525 130.267Z" fill="#0e1718" fill-rule="nonzero" opacity="1" stroke="none"/>
<path d="M209.013 143.577C211.209 141.203 214.546 140.869 216.466 142.83C218.386 144.791 218.162 148.305 215.966 150.679C213.77 153.053 210.433 153.387 208.512 151.426C206.592 149.465 206.816 145.951 209.013 143.577Z" fill="#0e1718" fill-rule="nonzero" opacity="1" stroke="none"/>
<path d="M221.421 156.822C223.617 154.448 226.954 154.114 228.875 156.074C230.795 158.035 230.571 161.55 228.374 163.924C226.178 166.297 222.841 166.632 220.921 164.671C219.001 162.71 219.225 159.196 221.421 156.822Z" fill="#0e1718" fill-rule="nonzero" opacity="1" stroke="none"/>
<path d="M233.533 169.303C235.729 166.929 239.066 166.594 240.987 168.555C242.907 170.516 242.683 174.03 240.486 176.404C238.29 178.778 234.953 179.113 233.033 177.152C231.113 175.191 231.337 171.677 233.533 169.303Z" fill="#0e1718" fill-rule="nonzero" opacity="1" stroke="none"/>
<path d="M245.941 182.548C248.138 180.174 251.475 179.839 253.395 181.8C255.315 183.761 255.091 187.275 252.895 189.649C250.698 192.023 247.361 192.358 245.441 190.397C243.521 188.436 243.745 184.922 245.941 182.548Z" fill="#0e1718" fill-rule="nonzero" opacity="1" stroke="none"/>
<path d="M258.075 194.207C260.272 191.833 263.609 191.498 265.529 193.459C267.449 195.42 267.225 198.934 265.029 201.308C262.832 203.682 259.495 204.017 257.575 202.056C255.655 200.095 255.879 196.581 258.075 194.207Z" fill="#0e1718" fill-rule="nonzero" opacity="1" stroke="none"/>
<path d="M271.079 207.105C273.276 204.731 276.613 204.396 278.533 206.357C280.453 208.318 280.229 211.832 278.033 214.206C275.836 216.58 272.499 216.915 270.579 214.954C268.659 212.993 268.883 209.479 271.079 207.105Z" fill="#0e1718" fill-rule="nonzero" opacity="1" stroke="none"/>
<path d="M120.602 80.0863C122.799 77.7123 126.136 77.3775 128.056 79.3385C129.976 81.2994 129.752 84.8135 127.555 87.1875C125.359 89.5614 122.022 89.8962 120.102 87.9353C118.182 85.9744 118.406 82.4602 120.602 80.0863Z" fill="#0e1718" fill-rule="nonzero" opacity="1" stroke="none"/>
<path d="M133.01 93.3312C135.207 90.9573 138.544 90.6225 140.464 92.5834C142.384 94.5444 142.16 98.0585 139.964 100.432C137.767 102.806 134.43 103.141 132.51 101.18C130.59 99.2193 130.814 95.7052 133.01 93.3312Z" fill="#0e1718" fill-rule="nonzero" opacity="1" stroke="none"/>
<path d="M145.123 105.812C147.319 103.438 150.656 103.103 152.576 105.064C154.496 107.025 154.272 110.539 152.076 112.913C149.879 115.287 146.542 115.622 144.622 113.661C142.702 111.7 142.926 108.186 145.123 105.812Z" fill="#0e1718" fill-rule="nonzero" opacity="1" stroke="none"/>
<path d="M157.531 119.057C159.727 116.683 163.064 116.348 164.984 118.309C166.904 120.27 166.68 123.784 164.484 126.158C162.288 128.532 158.951 128.867 157.03 126.906C155.11 124.945 155.334 121.431 157.531 119.057Z" fill="#0e1718" fill-rule="nonzero" opacity="1" stroke="none"/>
<path d="M169.665 130.716C171.861 128.342 175.198 128.007 177.118 129.968C179.039 131.929 178.815 135.443 176.618 137.817C174.422 140.191 171.085 140.526 169.165 138.565C167.245 136.604 167.468 133.09 169.665 130.716Z" fill="#0e1718" fill-rule="nonzero" opacity="1" stroke="none"/>
<path d="M182.669 143.614C184.865 141.24 188.202 140.905 190.122 142.866C192.042 144.827 191.818 148.341 189.622 150.715C187.426 153.089 184.089 153.424 182.168 151.463C180.248 149.502 180.472 145.988 182.669 143.614Z" fill="#0e1718" fill-rule="nonzero" opacity="1" stroke="none"/>
<path d="M196.156 156.924C198.353 154.55 201.69 154.215 203.61 156.176C205.53 158.137 205.306 161.651 203.109 164.025C200.913 166.399 197.576 166.734 195.656 164.773C193.736 162.812 193.96 159.298 196.156 156.924Z" fill="#0e1718" fill-rule="nonzero" opacity="1" stroke="none"/>
<path d="M208.564 170.169C210.761 167.795 214.098 167.46 216.018 169.421C217.938 171.382 217.714 174.896 215.518 177.27C213.321 179.644 209.984 179.979 208.064 178.018C206.144 176.057 206.368 172.543 208.564 170.169Z" fill="#0e1718" fill-rule="nonzero" opacity="1" stroke="none"/>
<path d="M220.677 182.649C222.873 180.276 226.21 179.941 228.13 181.902C230.05 183.863 229.826 187.377 227.63 189.751C225.433 192.125 222.096 192.459 220.176 190.498C218.256 188.538 218.48 185.023 220.677 182.649Z" fill="#0e1718" fill-rule="nonzero" opacity="1" stroke="none"/>
<path d="M233.085 195.894C235.281 193.52 238.618 193.186 240.538 195.147C242.458 197.108 242.234 200.622 240.038 202.996C237.842 205.37 234.505 205.704 232.585 203.743C230.664 201.782 230.888 198.268 233.085 195.894Z" fill="#0e1718" fill-rule="nonzero" opacity="1" stroke="none"/>
<path d="M245.219 207.554C247.415 205.18 250.752 204.845 252.672 206.806C254.593 208.767 254.369 212.281 252.172 214.655C249.976 217.029 246.639 217.364 244.719 215.403C242.799 213.442 243.023 209.928 245.219 207.554Z" fill="#0e1718" fill-rule="nonzero" opacity="1" stroke="none"/>
<path d="M258.223 220.452C260.419 218.078 263.756 217.743 265.676 219.704C267.596 221.665 267.372 225.179 265.176 227.553C262.98 229.927 259.643 230.262 257.722 228.301C255.802 226.34 256.026 222.826 258.223 220.452Z" fill="#0e1718" fill-rule="nonzero" opacity="1" stroke="none"/>
<path d="M106.919 94.1393C109.115 91.7653 112.452 91.4305 114.373 93.3915C116.293 95.3524 116.069 98.8665 113.872 101.24C111.676 103.614 108.339 103.949 106.419 101.988C104.499 100.027 104.723 96.5132 106.919 94.1393Z" fill="#0e1718" fill-rule="nonzero" opacity="1" stroke="none"/>
<path d="M119.327 107.384C121.524 105.01 124.861 104.675 126.781 106.636C128.701 108.597 128.477 112.111 126.281 114.485C124.084 116.859 120.747 117.194 118.827 115.233C116.907 113.272 117.131 109.758 119.327 107.384Z" fill="#0e1718" fill-rule="nonzero" opacity="1" stroke="none"/>
<path d="M131.439 119.865C133.636 117.491 136.973 117.156 138.893 119.117C140.813 121.078 140.589 124.592 138.393 126.966C136.196 129.34 132.859 129.675 130.939 127.714C129.019 125.753 129.243 122.239 131.439 119.865Z" fill="#0e1718" fill-rule="nonzero" opacity="1" stroke="none"/>
<path d="M143.848 133.11C146.044 130.736 149.381 130.401 151.301 132.362C153.221 134.323 152.997 137.837 150.801 140.211C148.604 142.585 145.267 142.92 143.347 140.959C141.427 138.998 141.651 135.484 143.848 133.11Z" fill="#0e1718" fill-rule="nonzero" opacity="1" stroke="none"/>
<path d="M155.982 144.769C158.178 142.395 161.515 142.06 163.435 144.021C165.355 145.982 165.131 149.496 162.935 151.87C160.739 154.244 157.401 154.579 155.481 152.618C153.561 150.657 153.785 147.143 155.982 144.769Z" fill="#0e1718" fill-rule="nonzero" opacity="1" stroke="none"/>
<path d="M168.986 157.667C171.182 155.293 174.519 154.958 176.439 156.919C178.359 158.88 178.135 162.394 175.939 164.768C173.742 167.142 170.405 167.477 168.485 165.516C166.565 163.555 166.789 160.041 168.986 157.667Z" fill="#0e1718" fill-rule="nonzero" opacity="1" stroke="none"/>
<path d="M182.473 170.977C184.669 168.603 188.006 168.268 189.927 170.229C191.847 172.19 191.623 175.704 189.426 178.078C187.23 180.452 183.893 180.787 181.973 178.826C180.053 176.865 180.277 173.351 182.473 170.977Z" fill="#0e1718" fill-rule="nonzero" opacity="1" stroke="none"/>
<path d="M194.881 184.222C197.078 181.848 200.415 181.513 202.335 183.474C204.255 185.435 204.031 188.949 201.835 191.323C199.638 193.697 196.301 194.032 194.381 192.071C192.461 190.11 192.685 186.596 194.881 184.222Z" fill="#0e1718" fill-rule="nonzero" opacity="1" stroke="none"/>
<path d="M206.993 196.702C209.19 194.328 212.527 193.994 214.447 195.955C216.367 197.916 216.143 201.43 213.947 203.804C211.75 206.178 208.413 206.512 206.493 204.551C204.573 202.591 204.797 199.076 206.993 196.702Z" fill="#0e1718" fill-rule="nonzero" opacity="1" stroke="none"/>
<path d="M219.402 209.947C221.598 207.573 224.935 207.239 226.855 209.2C228.775 211.161 228.551 214.675 226.355 217.049C224.158 219.423 220.821 219.757 218.901 217.796C216.981 215.835 217.205 212.321 219.402 209.947Z" fill="#0e1718" fill-rule="nonzero" opacity="1" stroke="none"/>
<path d="M231.536 221.607C233.732 219.233 237.069 218.898 238.989 220.859C240.909 222.82 240.685 226.334 238.489 228.708C236.293 231.082 232.955 231.417 231.035 229.456C229.115 227.495 229.339 223.981 231.536 221.607Z" fill="#0e1718" fill-rule="nonzero" opacity="1" stroke="none"/>
<path d="M244.54 234.505C246.736 232.131 250.073 231.796 251.993 233.757C253.913 235.718 253.689 239.232 251.493 241.606C249.296 243.98 245.959 244.315 244.039 242.354C242.119 240.393 242.343 236.879 244.54 234.505Z" fill="#0e1718" fill-rule="nonzero" opacity="1" stroke="none"/>
<path d="M94.7372 106.217C96.9336 103.843 100.271 103.508 102.191 105.469C104.111 107.43 103.887 110.944 101.69 113.318C99.4941 115.692 96.157 116.027 94.2369 114.066C92.3168 112.105 92.5408 108.591 94.7372 106.217Z" fill="#0e1718" fill-rule="nonzero" opacity="1" stroke="none"/>
<path d="M107.145 119.462C109.342 117.088 112.679 116.753 114.599 118.714C116.519 120.675 116.295 124.189 114.099 126.563C111.902 128.937 108.565 129.272 106.645 127.311C104.725 125.35 104.949 121.836 107.145 119.462Z" fill="#0e1718" fill-rule="nonzero" opacity="1" stroke="none"/>
<path d="M119.258 131.943C121.454 129.569 124.791 129.234 126.711 131.195C128.631 133.156 128.407 136.67 126.211 139.044C124.014 141.418 120.677 141.752 118.757 139.792C116.837 137.831 117.061 134.316 119.258 131.943Z" fill="#0e1718" fill-rule="nonzero" opacity="1" stroke="none"/>
<path d="M131.666 145.187C133.862 142.813 137.199 142.479 139.119 144.44C141.039 146.401 140.815 149.915 138.619 152.289C136.423 154.663 133.086 154.997 131.165 153.036C129.245 151.076 129.469 147.561 131.666 145.187Z" fill="#0e1718" fill-rule="nonzero" opacity="1" stroke="none"/>
<path d="M143.8 156.847C145.996 154.473 149.333 154.138 151.253 156.099C153.174 158.06 152.95 161.574 150.753 163.948C148.557 166.322 145.22 166.657 143.3 164.696C141.38 162.735 141.603 159.221 143.8 156.847Z" fill="#0e1718" fill-rule="nonzero" opacity="1" stroke="none"/>
<path d="M156.804 169.745C159 167.371 162.337 167.036 164.257 168.997C166.177 170.958 165.953 174.472 163.757 176.846C161.561 179.22 158.224 179.555 156.303 177.594C154.383 175.633 154.607 172.119 156.804 169.745Z" fill="#0e1718" fill-rule="nonzero" opacity="1" stroke="none"/>
<path d="M170.291 183.055C172.488 180.681 175.825 180.346 177.745 182.307C179.665 184.268 179.441 187.782 177.244 190.156C175.048 192.53 171.711 192.865 169.791 190.904C167.871 188.943 168.095 185.429 170.291 183.055Z" fill="#0e1718" fill-rule="nonzero" opacity="1" stroke="none"/>
<path d="M182.699 196.3C184.896 193.926 188.233 193.591 190.153 195.552C192.073 197.513 191.849 201.027 189.653 203.401C187.456 205.775 184.119 206.11 182.199 204.149C180.279 202.188 180.503 198.674 182.699 196.3Z" fill="#0e1718" fill-rule="nonzero" opacity="1" stroke="none"/>
<path d="M194.812 208.78C197.008 206.406 200.345 206.071 202.265 208.032C204.185 209.993 203.961 213.507 201.765 215.881C199.568 218.255 196.231 218.59 194.311 216.629C192.391 214.668 192.615 211.154 194.812 208.78Z" fill="#0e1718" fill-rule="nonzero" opacity="1" stroke="none"/>
<path d="M207.22 222.025C209.416 219.651 212.753 219.316 214.673 221.277C216.593 223.238 216.369 226.752 214.173 229.126C211.977 231.5 208.64 231.835 206.72 229.874C204.799 227.913 205.023 224.399 207.22 222.025Z" fill="#0e1718" fill-rule="nonzero" opacity="1" stroke="none"/>
<path d="M219.354 233.684C221.55 231.31 224.887 230.976 226.807 232.937C228.728 234.898 228.504 238.412 226.307 240.786C224.111 243.16 220.774 243.494 218.854 241.533C216.934 239.572 217.158 236.058 219.354 233.684Z" fill="#0e1718" fill-rule="nonzero" opacity="1" stroke="none"/>
<path d="M232.358 246.582C234.554 244.208 237.891 243.874 239.811 245.835C241.731 247.796 241.507 251.31 239.311 253.684C237.115 256.058 233.778 256.392 231.857 254.431C229.937 252.47 230.161 248.956 232.358 246.582Z" fill="#0e1718" fill-rule="nonzero" opacity="1" stroke="none"/>
<path d="M81.054 120.27C83.2504 117.896 86.5875 117.561 88.5075 119.522C90.4276 121.483 90.2036 124.997 88.0073 127.371C85.8109 129.745 82.4738 130.08 80.5537 128.119C78.6336 126.158 78.8576 122.644 81.054 120.27Z" fill="#0e1718" fill-rule="nonzero" opacity="1" stroke="none"/>
<path d="M93.4623 133.515C95.6587 131.141 98.9957 130.806 100.916 132.767C102.836 134.728 102.612 138.242 100.416 140.616C98.2191 142.99 94.8821 143.325 92.962 141.364C91.0419 139.403 91.2659 135.889 93.4623 133.515Z" fill="#0e1718" fill-rule="nonzero" opacity="1" stroke="none"/>
<path d="M105.574 145.995C107.771 143.622 111.108 143.287 113.028 145.248C114.948 147.209 114.724 150.723 112.528 153.097C110.331 155.471 106.994 155.805 105.074 153.844C103.154 151.884 103.378 148.369 105.574 145.995Z" fill="#0e1718" fill-rule="nonzero" opacity="1" stroke="none"/>
<path d="M117.983 159.24C120.179 156.866 123.516 156.532 125.436 158.493C127.356 160.454 127.132 163.968 124.936 166.342C122.739 168.716 119.402 169.05 117.482 167.089C115.562 165.128 115.786 161.614 117.983 159.24Z" fill="#0e1718" fill-rule="nonzero" opacity="1" stroke="none"/>
<path d="M130.117 170.9C132.313 168.526 135.65 168.191 137.57 170.152C139.49 172.113 139.266 175.627 137.07 178.001C134.874 180.375 131.536 180.71 129.616 178.749C127.696 176.788 127.92 173.274 130.117 170.9Z" fill="#0e1718" fill-rule="nonzero" opacity="1" stroke="none"/>
<path d="M143.121 183.798C145.317 181.424 148.654 181.089 150.574 183.05C152.494 185.011 152.27 188.525 150.074 190.899C147.877 193.273 144.54 193.608 142.62 191.647C140.7 189.686 140.924 186.172 143.121 183.798Z" fill="#0e1718" fill-rule="nonzero" opacity="1" stroke="none"/>
<path d="M156.608 197.108C158.804 194.734 162.141 194.399 164.062 196.36C165.982 198.321 165.758 201.835 163.561 204.209C161.365 206.583 158.028 206.918 156.108 204.957C154.188 202.996 154.412 199.482 156.608 197.108Z" fill="#0e1718" fill-rule="nonzero" opacity="1" stroke="none"/>
<path d="M169.016 210.353C171.213 207.979 174.55 207.644 176.47 209.605C178.39 211.566 178.166 215.08 175.97 217.454C173.773 219.828 170.436 220.163 168.516 218.202C166.596 216.241 166.82 212.727 169.016 210.353Z" fill="#0e1718" fill-rule="nonzero" opacity="1" stroke="none"/>
<path d="M181.128 222.833C183.325 220.459 186.662 220.124 188.582 222.085C190.502 224.046 190.278 227.56 188.082 229.934C185.885 232.308 182.548 232.643 180.628 230.682C178.708 228.721 178.932 225.207 181.128 222.833Z" fill="#0e1718" fill-rule="nonzero" opacity="1" stroke="none"/>
<path d="M193.537 236.078C195.733 233.704 199.07 233.369 200.99 235.33C202.91 237.291 202.686 240.805 200.49 243.179C198.293 245.553 194.956 245.888 193.036 243.927C191.116 241.966 191.34 238.452 193.537 236.078Z" fill="#0e1718" fill-rule="nonzero" opacity="1" stroke="none"/>
<path d="M205.671 247.737C207.867 245.363 211.204 245.029 213.124 246.99C215.044 248.95 214.82 252.465 212.624 254.839C210.428 257.212 207.09 257.547 205.17 255.586C203.25 253.625 203.474 250.111 205.671 247.737Z" fill="#0e1718" fill-rule="nonzero" opacity="1" stroke="none"/>
<path d="M218.675 260.635C220.871 258.261 224.208 257.927 226.128 259.888C228.048 261.849 227.824 265.363 225.628 267.737C223.431 270.111 220.094 270.445 218.174 268.484C216.254 266.523 216.478 263.009 218.675 260.635Z" fill="#0e1718" fill-rule="nonzero" opacity="1" stroke="none"/>
<path d="M68.1975 133.617C70.3939 131.243 73.7309 130.908 75.651 132.869C77.5711 134.83 77.3471 138.344 75.1507 140.718C72.9544 143.092 69.6173 143.427 67.6972 141.466C65.7771 139.505 66.0011 135.991 68.1975 133.617Z" fill="#0e1718" fill-rule="nonzero" opacity="1" stroke="none"/>
<path d="M80.6058 146.862C82.8021 144.488 86.1392 144.153 88.0593 146.114C89.9794 148.075 89.7554 151.589 87.559 153.963C85.3626 156.337 82.0256 156.672 80.1055 154.711C78.1854 152.75 78.4094 149.236 80.6058 146.862Z" fill="#0e1718" fill-rule="nonzero" opacity="1" stroke="none"/>
<path d="M92.7178 159.342C94.9142 156.968 98.2512 156.633 100.171 158.594C102.091 160.555 101.867 164.069 99.671 166.443C97.4747 168.817 94.1376 169.152 92.2175 167.191C90.2974 165.23 90.5214 161.716 92.7178 159.342Z" fill="#0e1718" fill-rule="nonzero" opacity="1" stroke="none"/>
<path d="M105.126 172.587C107.322 170.213 110.66 169.878 112.58 171.839C114.5 173.8 114.276 177.314 112.079 179.688C109.883 182.062 106.546 182.397 104.626 180.436C102.706 178.475 102.93 174.961 105.126 172.587Z" fill="#0e1718" fill-rule="nonzero" opacity="1" stroke="none"/>
<path d="M117.26 184.246C119.457 181.872 122.794 181.538 124.714 183.498C126.634 185.459 126.41 188.974 124.213 191.347C122.017 193.721 118.68 194.056 116.76 192.095C114.84 190.134 115.064 186.62 117.26 184.246Z" fill="#0e1718" fill-rule="nonzero" opacity="1" stroke="none"/>
<path d="M130.264 197.144C132.46 194.77 135.797 194.436 137.718 196.396C139.638 198.357 139.414 201.872 137.217 204.245C135.021 206.619 131.684 206.954 129.764 204.993C127.844 203.032 128.068 199.518 130.264 197.144Z" fill="#0e1718" fill-rule="nonzero" opacity="1" stroke="none"/>
<path d="M143.752 210.454C145.948 208.08 149.285 207.746 151.205 209.707C153.125 211.668 152.901 215.182 150.705 217.556C148.508 219.93 145.171 220.264 143.251 218.303C141.331 216.342 141.555 212.828 143.752 210.454Z" fill="#0e1718" fill-rule="nonzero" opacity="1" stroke="none"/>
<path d="M156.16 223.699C158.356 221.325 161.693 220.991 163.613 222.952C165.533 224.912 165.309 228.427 163.113 230.801C160.917 233.174 157.58 233.509 155.659 231.548C153.739 229.587 153.963 226.073 156.16 223.699Z" fill="#0e1718" fill-rule="nonzero" opacity="1" stroke="none"/>
<path d="M168.272 236.18C170.468 233.806 173.805 233.471 175.725 235.432C177.645 237.393 177.421 240.907 175.225 243.281C173.029 245.655 169.692 245.99 167.772 244.029C165.851 242.068 166.075 238.554 168.272 236.18Z" fill="#0e1718" fill-rule="nonzero" opacity="1" stroke="none"/>
<path d="M180.68 249.425C182.876 247.051 186.214 246.716 188.134 248.677C190.054 250.638 189.83 254.152 187.633 256.526C185.437 258.9 182.1 259.235 180.18 257.274C178.26 255.313 178.484 251.799 180.68 249.425Z" fill="#0e1718" fill-rule="nonzero" opacity="1" stroke="none"/>
<path d="M192.814 261.084C195.011 258.71 198.348 258.375 200.268 260.336C202.188 262.297 201.964 265.811 199.767 268.185C197.571 270.559 194.234 270.894 192.314 268.933C190.394 266.972 190.618 263.458 192.814 261.084Z" fill="#0e1718" fill-rule="nonzero" opacity="1" stroke="none"/>
<path d="M205.818 273.982C208.014 271.608 211.351 271.273 213.272 273.234C215.192 275.195 214.968 278.709 212.771 281.083C210.575 283.457 207.238 283.792 205.318 281.831C203.398 279.87 203.622 276.356 205.818 273.982Z" fill="#0e1718" fill-rule="nonzero" opacity="1" stroke="none"/>
<path d="M54.5143 147.67C56.7107 145.296 60.0477 144.961 61.9678 146.922C63.8879 148.883 63.6639 152.397 61.4675 154.771C59.2711 157.145 55.9341 157.48 54.014 155.519C52.0939 153.558 52.3179 150.044 54.5143 147.67Z" fill="#0e1718" fill-rule="nonzero" opacity="1" stroke="none"/>
<path d="M66.9225 160.915C69.1189 158.541 72.456 158.206 74.3761 160.167C76.2962 162.128 76.0722 165.642 73.8758 168.016C71.6794 170.39 68.3423 170.725 66.4223 168.764C64.5022 166.803 64.7262 163.289 66.9225 160.915Z" fill="#0e1718" fill-rule="nonzero" opacity="1" stroke="none"/>
<path d="M79.0346 173.395C81.231 171.021 84.568 170.686 86.4881 172.647C88.4082 174.608 88.1842 178.122 85.9878 180.496C83.7914 182.87 80.4544 183.205 78.5343 181.244C76.6142 179.283 76.8382 175.769 79.0346 173.395Z" fill="#0e1718" fill-rule="nonzero" opacity="1" stroke="none"/>
<path d="M91.4428 186.64C93.6392 184.266 96.9763 183.931 98.8964 185.892C100.816 187.853 100.592 191.367 98.3961 193.741C96.1997 196.115 92.8626 196.45 90.9426 194.489C89.0225 192.528 89.2465 189.014 91.4428 186.64Z" fill="#0e1718" fill-rule="nonzero" opacity="1" stroke="none"/>
<path d="M103.577 198.299C105.773 195.925 109.11 195.59 111.03 197.551C112.951 199.512 112.727 203.026 110.53 205.4C108.334 207.774 104.997 208.109 103.077 206.148C101.157 204.187 101.381 200.673 103.577 198.299Z" fill="#0e1718" fill-rule="nonzero" opacity="1" stroke="none"/>
<path d="M116.581 211.197C118.777 208.823 122.114 208.489 124.034 210.449C125.954 212.41 125.73 215.925 123.534 218.298C121.338 220.672 118.001 221.007 116.081 219.046C114.16 217.085 114.384 213.571 116.581 211.197Z" fill="#0e1718" fill-rule="nonzero" opacity="1" stroke="none"/>
<path d="M130.068 224.507C132.265 222.133 135.602 221.799 137.522 223.76C139.442 225.72 139.218 229.235 137.022 231.609C134.825 233.983 131.488 234.317 129.568 232.356C127.648 230.395 127.872 226.881 130.068 224.507Z" fill="#0e1718" fill-rule="nonzero" opacity="1" stroke="none"/>
<path d="M142.477 237.752C144.673 235.378 148.01 235.044 149.93 237.004C151.85 238.965 151.626 242.48 149.43 244.853C147.233 247.227 143.896 247.562 141.976 245.601C140.056 243.64 140.28 240.126 142.477 237.752Z" fill="#0e1718" fill-rule="nonzero" opacity="1" stroke="none"/>
<path d="M154.589 250.233C156.785 247.859 160.122 247.524 162.042 249.485C163.962 251.446 163.738 254.96 161.542 257.334C159.345 259.708 156.008 260.043 154.088 258.082C152.168 256.121 152.392 252.607 154.589 250.233Z" fill="#0e1718" fill-rule="nonzero" opacity="1" stroke="none"/>
<path d="M166.997 263.478C169.193 261.104 172.53 260.769 174.45 262.73C176.37 264.691 176.146 268.205 173.95 270.579C171.754 272.953 168.417 273.288 166.497 271.327C164.576 269.366 164.8 265.852 166.997 263.478Z" fill="#0e1718" fill-rule="nonzero" opacity="1" stroke="none"/>
<path d="M179.131 275.137C181.327 272.763 184.664 272.428 186.584 274.389C188.505 276.35 188.281 279.864 186.084 282.238C183.888 284.612 180.551 284.947 178.631 282.986C176.711 281.025 176.935 277.511 179.131 275.137Z" fill="#0e1718" fill-rule="nonzero" opacity="1" stroke="none"/>
<path d="M192.135 288.035C194.331 285.661 197.668 285.326 199.588 287.287C201.508 289.248 201.284 292.762 199.088 295.136C196.892 297.51 193.555 297.845 191.635 295.884C189.714 293.923 189.938 290.409 192.135 288.035Z" fill="#0e1718" fill-rule="nonzero" opacity="1" stroke="none"/>
<path d="M43.0253 159.928C45.2216 157.554 48.5587 157.219 50.4788 159.18C52.3989 161.141 52.1749 164.655 49.9785 167.029C47.7821 169.403 44.4451 169.738 42.525 167.777C40.6049 165.816 40.8289 162.302 43.0253 159.928Z" fill="#0e1718" fill-rule="nonzero" opacity="1" stroke="none"/>
<path d="M55.4335 173.173C57.6299 170.799 60.967 170.464 62.887 172.425C64.8071 174.386 64.5832 177.9 62.3868 180.274C60.1904 182.648 56.8533 182.983 54.9332 181.022C53.0131 179.061 53.2371 175.547 55.4335 173.173Z" fill="#0e1718" fill-rule="nonzero" opacity="1" stroke="none"/>
<path d="M67.5456 185.653C69.7419 183.279 73.079 182.945 74.9991 184.906C76.9192 186.867 76.6952 190.381 74.4988 192.755C72.3024 195.129 68.9654 195.463 67.0453 193.502C65.1252 191.542 65.3492 188.027 67.5456 185.653Z" fill="#0e1718" fill-rule="nonzero" opacity="1" stroke="none"/>
<path d="M79.9538 198.898C82.1502 196.524 85.4873 196.19 87.4073 198.151C89.3274 200.111 89.1035 203.626 86.9071 206C84.7107 208.374 81.3736 208.708 79.4535 206.747C77.5334 204.786 77.7574 201.272 79.9538 198.898Z" fill="#0e1718" fill-rule="nonzero" opacity="1" stroke="none"/>
<path d="M92.0879 210.558C94.2843 208.184 97.6214 207.849 99.5415 209.81C101.462 211.771 101.238 215.285 99.0412 217.659C96.8448 220.033 93.5077 220.368 91.5876 218.407C89.6675 216.446 89.8915 212.932 92.0879 210.558Z" fill="#0e1718" fill-rule="nonzero" opacity="1" stroke="none"/>
<path d="M105.092 223.456C107.288 221.082 110.625 220.747 112.545 222.708C114.465 224.669 114.241 228.183 112.045 230.557C109.849 232.931 106.512 233.266 104.591 231.305C102.671 229.344 102.895 225.83 105.092 223.456Z" fill="#0e1718" fill-rule="nonzero" opacity="1" stroke="none"/>
<path d="M118.579 236.766C120.776 234.392 124.113 234.057 126.033 236.018C127.953 237.979 127.729 241.493 125.533 243.867C123.336 246.241 119.999 246.576 118.079 244.615C116.159 242.654 116.383 239.14 118.579 236.766Z" fill="#0e1718" fill-rule="nonzero" opacity="1" stroke="none"/>
<path d="M130.988 250.011C133.184 247.637 136.521 247.302 138.441 249.263C140.361 251.224 140.137 254.738 137.941 257.112C135.744 259.486 132.407 259.821 130.487 257.86C128.567 255.899 128.791 252.385 130.988 250.011Z" fill="#0e1718" fill-rule="nonzero" opacity="1" stroke="none"/>
<path d="M143.1 262.491C145.296 260.117 148.633 259.782 150.553 261.743C152.473 263.704 152.249 267.218 150.053 269.592C147.856 271.966 144.519 272.301 142.599 270.34C140.679 268.379 140.903 264.865 143.1 262.491Z" fill="#0e1718" fill-rule="nonzero" opacity="1" stroke="none"/>
<path d="M155.508 275.736C157.704 273.362 161.041 273.027 162.961 274.988C164.881 276.949 164.657 280.463 162.461 282.837C160.265 285.211 156.928 285.546 155.008 283.585C153.087 281.624 153.311 278.11 155.508 275.736Z" fill="#0e1718" fill-rule="nonzero" opacity="1" stroke="none"/>
<path d="M167.642 287.395C169.838 285.021 173.175 284.687 175.095 286.647C177.016 288.608 176.792 292.123 174.595 294.496C172.399 296.87 169.062 297.205 167.142 295.244C165.222 293.283 165.446 289.769 167.642 287.395Z" fill="#0e1718" fill-rule="nonzero" opacity="1" stroke="none"/>
<path d="M180.646 300.293C182.842 297.919 186.179 297.585 188.099 299.546C190.019 301.506 189.795 305.021 187.599 307.395C185.403 309.768 182.066 310.103 180.145 308.142C178.225 306.181 178.449 302.667 180.646 300.293Z" fill="#0e1718" fill-rule="nonzero" opacity="1" stroke="none"/>
<path d="M29.342 173.981C31.5384 171.607 34.8755 171.272 36.7956 173.233C38.7157 175.194 38.4917 178.708 36.2953 181.082C34.0989 183.456 30.7618 183.791 28.8418 181.83C26.9217 179.869 27.1457 176.355 29.342 173.981Z" fill="#0e1718" fill-rule="nonzero" opacity="1" stroke="none"/>
<path d="M41.7503 187.226C43.9467 184.852 47.2837 184.517 49.2038 186.478C51.1239 188.439 50.8999 191.953 48.7036 194.327C46.5072 196.701 43.1701 197.036 41.25 195.075C39.3299 193.114 39.5539 189.6 41.7503 187.226Z" fill="#0e1718" fill-rule="nonzero" opacity="1" stroke="none"/>
<path d="M53.8623 199.706C56.0587 197.332 59.3958 196.998 61.3159 198.959C63.236 200.92 63.012 204.434 60.8156 206.808C58.6192 209.182 55.2821 209.516 53.3621 207.555C51.442 205.594 51.666 202.08 53.8623 199.706Z" fill="#0e1718" fill-rule="nonzero" opacity="1" stroke="none"/>
<path d="M66.2706 212.951C68.467 210.577 71.804 210.243 73.7241 212.204C75.6442 214.164 75.4202 217.679 73.2239 220.053C71.0275 222.426 67.6904 222.761 65.7703 220.8C63.8502 218.839 64.0742 215.325 66.2706 212.951Z" fill="#0e1718" fill-rule="nonzero" opacity="1" stroke="none"/>
<path d="M78.4047 224.611C80.6011 222.237 83.9382 221.902 85.8582 223.863C87.7783 225.824 87.5543 229.338 85.358 231.712C83.1616 234.086 79.8245 234.421 77.9044 232.46C75.9843 230.499 76.2083 226.984 78.4047 224.611Z" fill="#0e1718" fill-rule="nonzero" opacity="1" stroke="none"/>
<path d="M91.4086 237.509C93.6049 235.135 96.942 234.8 98.8621 236.761C100.782 238.722 100.558 242.236 98.3618 244.61C96.1654 246.984 92.8284 247.319 90.9083 245.358C88.9882 243.397 89.2122 239.883 91.4086 237.509Z" fill="#0e1718" fill-rule="nonzero" opacity="1" stroke="none"/>
<path d="M104.896 250.819C107.092 248.445 110.43 248.11 112.35 250.071C114.27 252.032 114.046 255.546 111.849 257.92C109.653 260.294 106.316 260.629 104.396 258.668C102.476 256.707 102.7 253.193 104.896 250.819Z" fill="#0e1718" fill-rule="nonzero" opacity="1" stroke="none"/>
<path d="M117.304 264.064C119.501 261.69 122.838 261.355 124.758 263.316C126.678 265.277 126.454 268.791 124.258 271.165C122.061 273.539 118.724 273.874 116.804 271.913C114.884 269.952 115.108 266.438 117.304 264.064Z" fill="#0e1718" fill-rule="nonzero" opacity="1" stroke="none"/>
<path d="M129.416 276.544C131.613 274.17 134.95 273.835 136.87 275.796C138.79 277.757 138.566 281.271 136.37 283.645C134.173 286.019 130.836 286.354 128.916 284.393C126.996 282.432 127.22 278.918 129.416 276.544Z" fill="#0e1718" fill-rule="nonzero" opacity="1" stroke="none"/>
<path d="M141.825 289.789C144.021 287.415 147.358 287.08 149.278 289.041C151.198 291.002 150.974 294.516 148.778 296.89C146.581 299.264 143.244 299.599 141.324 297.638C139.404 295.677 139.628 292.163 141.825 289.789Z" fill="#0e1718" fill-rule="nonzero" opacity="1" stroke="none"/>
<path d="M153.959 301.448C156.155 299.074 159.492 298.74 161.412 300.7C163.332 302.661 163.108 306.176 160.912 308.549C158.716 310.923 155.379 311.258 153.458 309.297C151.538 307.336 151.762 303.822 153.959 301.448Z" fill="#0e1718" fill-rule="nonzero" opacity="1" stroke="none"/>
<path d="M166.963 314.346C169.159 311.972 172.496 311.638 174.416 313.599C176.336 315.559 176.112 319.074 173.916 321.448C171.719 323.821 168.382 324.156 166.462 322.195C164.542 320.234 164.766 316.72 166.963 314.346Z" fill="#0e1718" fill-rule="nonzero" opacity="1" stroke="none"/>
<path d="M16.4855 187.328C18.6819 184.954 22.019 184.619 23.9391 186.58C25.8592 188.541 25.6352 192.055 23.4388 194.429C21.2424 196.803 17.9053 197.138 15.9852 195.177C14.0652 193.216 14.2891 189.702 16.4855 187.328Z" fill="#0e1718" fill-rule="nonzero" opacity="1" stroke="none"/>
<path d="M28.8938 200.573C31.0902 198.199 34.4272 197.864 36.3473 199.825C38.2674 201.786 38.0434 205.3 35.847 207.674C33.6507 210.048 30.3136 210.382 28.3935 208.422C26.4734 206.461 26.6974 202.946 28.8938 200.573Z" fill="#0e1718" fill-rule="nonzero" opacity="1" stroke="none"/>
<path d="M41.0058 213.053C43.2022 210.679 46.5393 210.344 48.4594 212.305C50.3794 214.266 50.1555 217.78 47.9591 220.154C45.7627 222.528 42.4256 222.863 40.5055 220.902C38.5855 218.941 38.8094 215.427 41.0058 213.053Z" fill="#0e1718" fill-rule="nonzero" opacity="1" stroke="none"/>
<path d="M53.4141 226.298C55.6105 223.924 58.9475 223.589 60.8676 225.55C62.7877 227.511 62.5637 231.025 60.3673 233.399C58.1709 235.773 54.8339 236.108 52.9138 234.147C50.9937 232.186 51.2177 228.672 53.4141 226.298Z" fill="#0e1718" fill-rule="nonzero" opacity="1" stroke="none"/>
<path d="M65.5482 237.957C67.7446 235.583 71.0816 235.248 73.0017 237.209C74.9218 239.17 74.6978 242.684 72.5014 245.058C70.3051 247.432 66.968 247.767 65.0479 245.806C63.1278 243.845 63.3518 240.331 65.5482 237.957Z" fill="#0e1718" fill-rule="nonzero" opacity="1" stroke="none"/>
<path d="M78.552 250.855C80.7484 248.481 84.0855 248.146 86.0056 250.107C87.9257 252.068 87.7017 255.582 85.5053 257.956C83.3089 260.33 79.9718 260.665 78.0518 258.704C76.1317 256.743 76.3556 253.229 78.552 250.855Z" fill="#0e1718" fill-rule="nonzero" opacity="1" stroke="none"/>
<path d="M92.0395 264.165C94.2359 261.791 97.573 261.457 99.4931 263.418C101.413 265.378 101.189 268.893 98.9928 271.267C96.7964 273.64 93.4593 273.975 91.5393 272.014C89.6192 270.053 89.8432 266.539 92.0395 264.165Z" fill="#0e1718" fill-rule="nonzero" opacity="1" stroke="none"/>
<path d="M104.448 277.41C106.644 275.036 109.981 274.701 111.901 276.662C113.821 278.623 113.597 282.137 111.401 284.511C109.205 286.885 105.868 287.22 103.948 285.259C102.027 283.298 102.251 279.784 104.448 277.41Z" fill="#0e1718" fill-rule="nonzero" opacity="1" stroke="none"/>
<path d="M116.56 289.891C118.756 287.517 122.093 287.182 124.013 289.143C125.933 291.104 125.709 294.618 123.513 296.992C121.317 299.366 117.98 299.701 116.06 297.74C114.139 295.779 114.363 292.265 116.56 289.891Z" fill="#0e1718" fill-rule="nonzero" opacity="1" stroke="none"/>
<path d="M128.968 303.136C131.164 300.762 134.502 300.427 136.422 302.388C138.342 304.349 138.118 307.863 135.921 310.237C133.725 312.611 130.388 312.946 128.468 310.985C126.548 309.024 126.772 305.51 128.968 303.136Z" fill="#0e1718" fill-rule="nonzero" opacity="1" stroke="none"/>
<path d="M141.102 314.795C143.299 312.421 146.636 312.086 148.556 314.047C150.476 316.008 150.252 319.522 148.055 321.896C145.859 324.27 142.522 324.605 140.602 322.644C138.682 320.683 138.906 317.169 141.102 314.795Z" fill="#0e1718" fill-rule="nonzero" opacity="1" stroke="none"/>
<path d="M154.106 327.693C156.302 325.319 159.64 324.984 161.56 326.945C163.48 328.906 163.256 332.42 161.059 334.794C158.863 337.168 155.526 337.503 153.606 335.542C151.686 333.581 151.91 330.067 154.106 327.693Z" fill="#0e1718" fill-rule="nonzero" opacity="1" stroke="none"/>
<path d="M2.80231 201.381C4.9987 199.007 8.33576 198.672 10.2559 200.633C12.1759 202.594 11.952 206.108 9.75557 208.482C7.55918 210.856 4.22212 211.191 2.30203 209.23C0.381941 207.269 0.605926 203.755 2.80231 201.381Z" fill="#0e1718" fill-rule="nonzero" opacity="1" stroke="none"/>
<path d="M15.2106 214.626C17.407 212.252 20.744 211.917 22.6641 213.878C24.5842 215.839 24.3602 219.353 22.1638 221.727C19.9674 224.101 16.6304 224.435 14.7103 222.475C12.7902 220.514 13.0142 216.999 15.2106 214.626Z" fill="#0e1718" fill-rule="nonzero" opacity="1" stroke="none"/>
<path d="M27.3226 227.106C29.519 224.732 32.8561 224.397 34.7761 226.358C36.6962 228.319 36.4723 231.833 34.2759 234.207C32.0795 236.581 28.7424 236.916 26.8223 234.955C24.9022 232.994 25.1262 229.48 27.3226 227.106Z" fill="#0e1718" fill-rule="nonzero" opacity="1" stroke="none"/>
<path d="M39.7309 240.351C41.9273 237.977 45.2643 237.642 47.1844 239.603C49.1045 241.564 48.8805 245.078 46.6841 247.452C44.4877 249.826 41.1507 250.161 39.2306 248.2C37.3105 246.239 37.5345 242.725 39.7309 240.351Z" fill="#0e1718" fill-rule="nonzero" opacity="1" stroke="none"/>
<path d="M51.865 252.01C54.0614 249.636 57.3984 249.301 59.3185 251.262C61.2386 253.223 61.0146 256.737 58.8182 259.111C56.6218 261.485 53.2848 261.82 51.3647 259.859C49.4446 257.898 49.6686 254.384 51.865 252.01Z" fill="#0e1718" fill-rule="nonzero" opacity="1" stroke="none"/>
<path d="M64.8688 264.908C67.0652 262.534 70.4023 262.199 72.3224 264.16C74.2424 266.121 74.0185 269.635 71.8221 272.009C69.6257 274.383 66.2886 274.718 64.3685 272.757C62.4485 270.796 62.6724 267.282 64.8688 264.908Z" fill="#0e1718" fill-rule="nonzero" opacity="1" stroke="none"/>
<path d="M78.3563 278.218C80.5527 275.844 83.8898 275.51 85.8099 277.47C87.73 279.431 87.506 282.946 85.3096 285.319C83.1132 287.693 79.7761 288.028 77.856 286.067C75.936 284.106 76.1599 280.592 78.3563 278.218Z" fill="#0e1718" fill-rule="nonzero" opacity="1" stroke="none"/>
<path d="M90.7646 291.463C92.961 289.089 96.298 288.754 98.2181 290.715C100.138 292.676 99.9142 296.19 97.7178 298.564C95.5215 300.938 92.1844 301.273 90.2643 299.312C88.3442 297.351 88.5682 293.837 90.7646 291.463Z" fill="#0e1718" fill-rule="nonzero" opacity="1" stroke="none"/>
<path d="M102.877 303.944C105.073 301.57 108.41 301.235 110.33 303.196C112.25 305.157 112.026 308.671 109.83 311.045C107.633 313.419 104.296 313.754 102.376 311.793C100.456 309.832 100.68 306.318 102.877 303.944Z" fill="#0e1718" fill-rule="nonzero" opacity="1" stroke="none"/>
<path d="M115.285 317.189C117.481 314.815 120.818 314.48 122.738 316.441C124.659 318.402 124.435 321.916 122.238 324.29C120.042 326.664 116.705 326.999 114.785 325.038C112.865 323.077 113.088 319.563 115.285 317.189Z" fill="#0e1718" fill-rule="nonzero" opacity="1" stroke="none"/>
<path d="M127.419 328.848C129.615 326.474 132.952 326.139 134.873 328.1C136.793 330.061 136.569 333.575 134.372 335.949C132.176 338.323 128.839 338.658 126.919 336.697C124.999 334.736 125.223 331.222 127.419 328.848Z" fill="#0e1718" fill-rule="nonzero" opacity="1" stroke="none"/>
<path d="M140.423 341.746C142.619 339.372 145.956 339.037 147.876 340.998C149.796 342.959 149.572 346.473 147.376 348.847C145.18 351.221 141.843 351.556 139.923 349.595C138.002 347.634 138.226 344.12 140.423 341.746Z" fill="#0e1718" fill-rule="nonzero" opacity="1" stroke="none"/>
</g>
</svg>
