<!--?xml version="1.0" standalone="no"?-->
              <svg id="sw-js-blob-svg" viewBox="0 0 100 100" xmlns="http://www.w3.org/2000/svg" version="1.1">
                    <defs> 
                        <linearGradient id="sw-gradient" x1="0" x2="1" y1="1" y2="0">
                            <stop id="stop1" stop-color="rgba(246, 246, 246, 1)" offset="0%"></stop>
                            <stop id="stop2" stop-color="rgba(246, 246, 246, 1)" offset="100%"></stop>
                        </linearGradient>
                    </defs>
                <path fill="none" d="M12.4,-9.5C20.2,-11.4,33.4,-13.3,37.7,-9.9C42,-6.6,37.3,2,30.8,6.4C24.4,10.7,16.2,10.8,10.7,14C5.3,17.1,2.7,23.3,-3.6,28.2C-9.8,33.1,-19.6,36.8,-25.6,33.8C-31.7,30.9,-34,21.3,-32.5,13.5C-31,5.6,-25.7,-0.5,-22.7,-6.7C-19.8,-12.9,-19.2,-19.2,-15.8,-18.8C-12.4,-18.3,-6.2,-11.1,-1.9,-8.5C2.3,-5.8,4.6,-7.6,12.4,-9.5Z" width="100%" height="100%" transform="translate(50 50)" stroke-width="1" style="transition: all 0.3s ease 0s;" stroke="url(#sw-gradient)"></path>
              </svg>