<!--?xml version="1.0" standalone="no"?-->
              <svg id="sw-js-blob-svg" viewBox="0 0 100 100" xmlns="http://www.w3.org/2000/svg" version="1.1">
                    <defs> 
                        <linearGradient id="sw-gradient" x1="0" x2="1" y1="1" y2="0">
                            <stop id="stop1" stop-color="rgba(71, 137, 144, 1)" offset="0%"></stop>
                            <stop id="stop2" stop-color="rgba(71, 137, 144, 1)" offset="100%"></stop>
                        </linearGradient>
                    </defs>
                <path fill="none" d="M21.4,-37.4C27,-33.8,30.5,-26.7,31.9,-19.9C33.3,-13.1,32.8,-6.5,31.5,-0.7C30.3,5.1,28.3,10.1,26.4,16.1C24.5,22.1,22.6,28.9,18.2,33.1C13.8,37.4,6.9,39,-0.6,40C-8,40.9,-16,41.3,-20.8,37.3C-25.7,33.3,-27.3,25,-28.5,18.1C-29.7,11.1,-30.5,5.6,-30.4,0.1C-30.3,-5.4,-29.3,-10.9,-26.6,-15.3C-24,-19.8,-19.7,-23.2,-15,-27.4C-10.3,-31.5,-5.1,-36.4,1.4,-38.7C7.9,-41.1,15.7,-41,21.4,-37.4Z" width="100%" height="100%" transform="translate(50 50)" stroke-width="1" style="transition: all 0.3s ease 0s;" stroke="url(#sw-gradient)"></path>
              </svg>