<?xml version="1.0" encoding="UTF-8" standalone="no"?>
<!DOCTYPE svg PUBLIC "-//W3C//DTD SVG 1.1//EN" "http://www.w3.org/Graphics/SVG/1.1/DTD/svg11.dtd">
<!-- Created with Vectornator (http://vectornator.io/) -->
<svg height="100%" stroke-miterlimit="10" style="fill-rule:nonzero;clip-rule:evenodd;stroke-linecap:round;stroke-linejoin:round;" version="1.1" viewBox="0 0 391 555" width="100%" xml:space="preserve" xmlns="http://www.w3.org/2000/svg" xmlns:vectornator="http://vectornator.io" xmlns:xlink="http://www.w3.org/1999/xlink">
<defs/>
<g id="Pattern_x5F__x2014_ŽÓť_x5F_23" vectornator:layerName="Pattern_x5F__x2014_ŽÓť_x5F_23">
<g opacity="1">
<path d="M159.4 437.7C149.9 437.7 144.3 446.8 143.6 455.3C142.5 463.5 147.8 470.3 156.5 470.4C164.1 470.5 171.5 465.3 173 457.7C174.6 448.9 169.4 437.7 159.4 437.7Z" fill="#ffffff" fill-rule="nonzero" opacity="1" stroke="none"/>
<path d="M238.6 417.5C232.7 415.7 227.2 419.8 226.3 425.7C225.1 431.7 227.9 437.6 233.8 439.6C239.8 441.7 245.4 437 246.4 431.2C247.5 425.4 244.4 419.3 238.6 417.5Z" fill="#ffffff" fill-rule="nonzero" opacity="1" stroke="none"/>
<path d="M200.9 508.9C195.8 510.3 192.3 515 192.2 520.2C192.1 521.4 192.3 522.6 193 523.7C196 527.9 201.2 530.3 206.4 528.9C211.9 527.4 214.9 521.9 213.5 516.4C212.1 510.8 206.5 507.4 200.9 508.9Z" fill="#ffffff" fill-rule="nonzero" opacity="1" stroke="none"/>
<path d="M287.4 374C282.3 375.4 278.8 380.1 278.7 385.3C278.6 386.5 278.8 387.7 279.5 388.8C282.5 393 287.7 395.4 292.9 394C298.4 392.5 301.4 387 300 381.5C298.6 375.9 293 372.4 287.4 374Z" fill="#ffffff" fill-rule="nonzero" opacity="1" stroke="none"/>
<path d="M278.6 467.7C276.7 475.1 288.3 478 290.1 470.6C292 463.1 280.4 460.2 278.6 467.7Z" fill="#ffffff" fill-rule="nonzero" opacity="1" stroke="none"/>
<path d="M331.6 343.7C329.7 351.1 341.3 354 343.1 346.6C345 339.1 333.4 336.2 331.6 343.7Z" fill="#ffffff" fill-rule="nonzero" opacity="1" stroke="none"/>
<path d="M106.8 515.3C104.9 522.7 116.5 525.6 118.3 518.2C120.2 510.7 108.7 507.8 106.8 515.3Z" fill="#ffffff" fill-rule="nonzero" opacity="1" stroke="none"/>
<path d="M337.8 200.3C335.9 207.7 347.5 210.6 349.3 203.2C351.2 195.7 339.7 192.8 337.8 200.3Z" fill="#ffffff" fill-rule="nonzero" opacity="1" stroke="none"/>
<path d="M165.1 47.9C163.2 55.3 174.8 58.2 176.6 50.8C178.5 43.4 167 40.5 165.1 47.9Z" fill="#ffffff" fill-rule="nonzero" opacity="1" stroke="none"/>
<path d="M66.1 96.4C64.2 103.8 75.8 106.7 77.6 99.3C79.5 91.9 67.9 89 66.1 96.4Z" fill="#ffffff" fill-rule="nonzero" opacity="1" stroke="none"/>
<path d="M158.9 164.7C157 172.1 168.6 175 170.4 167.6C172.3 160.2 160.8 157.3 158.9 164.7Z" fill="#ffffff" fill-rule="nonzero" opacity="1" stroke="none"/>
<path d="M288.9 226.7C287 234.1 298.6 237 300.4 229.6C302.3 222.2 290.8 219.3 288.9 226.7Z" fill="#ffffff" fill-rule="nonzero" opacity="1" stroke="none"/>
<path d="M111.1 383.3C109.2 390.7 120.8 393.6 122.6 386.2C124.5 378.8 112.9 375.9 111.1 383.3Z" fill="#ffffff" fill-rule="nonzero" opacity="1" stroke="none"/>
<path d="M146.9 121.6C150.9 122.6 154.5 120 156.4 116.8C157.9 114.3 158.5 111.6 158.8 108.8C159.1 105.5 157.9 102 154.9 100.3C152.4 98.9 149.6 99.3 147.1 100.6C146.2 101.1 145.3 101.8 144.5 102.5C143.8 103 143.2 103.7 142.6 104.3C142 105 141.5 105.8 141.2 106.7C140.7 107.1 140.3 107.6 140 108.2C139.3 109.6 139 111.3 139.5 112.8C140.6 116.5 142.7 120.6 146.9 121.6Z" fill="#ffffff" fill-rule="nonzero" opacity="1" stroke="none"/>
<path d="M324.3 270.2C317.9 273.5 316.3 281.4 319.5 287.5C320.5 289.3 322.5 290.3 324.5 290.4C327.8 293.1 332.2 293.9 336.2 291.2C340.6 288.2 342.7 282.2 341 277.1C338.8 270.4 330.7 267 324.3 270.2Z" fill="#ffffff" fill-rule="nonzero" opacity="1" stroke="none"/>
<path d="M289.1 298.9C288.6 296.7 287.1 295 285.3 293.8C283.8 292.9 281.9 292.5 280.1 292.5C279.7 292.5 279.2 292.5 278.8 292.6C277.8 292.7 276.9 292.9 276 293.1C275.1 293.4 274.2 293.8 273.3 294.2C272.9 294.4 272.4 294.6 272 294.9C270.4 296 269.2 297.2 268.1 298.8C268 299 267.9 299.1 267.8 299.3C267.5 299.9 267.2 300.6 267 301.3C266.8 302 266.8 302.7 266.7 303.4C266.7 303.6 266.7 303.8 266.7 304C266.9 306.5 267.9 308.6 269.6 310.4C270.4 311.2 271.3 311.9 272.2 312.5C272.9 313 273.6 313.4 274.3 313.8C274.8 314 275.2 314.2 275.7 314.4C276.4 314.8 277.2 315.1 278 315.1C278.8 315.3 279.6 315.2 280.3 315C281.6 314.6 283.1 313.6 283.7 312.3C283.9 312.1 284.1 311.9 284.3 311.7C285.6 310 287 308.2 287.9 306.2C288.3 305.2 288.8 304.2 289 303.1C289.4 301.5 289.5 300.5 289.1 298.9Z" fill="#ffffff" fill-rule="nonzero" opacity="1" stroke="none"/>
<path d="M323.1 154.9C322.6 152.7 321.1 151 319.3 149.8C317.8 148.9 315.9 148.5 314.1 148.5C313.7 148.5 313.2 148.5 312.8 148.6C311.8 148.7 310.9 148.9 310 149.1C309.1 149.4 308.2 149.8 307.3 150.2C306.9 150.4 306.4 150.6 306 150.9C304.4 152 303.2 153.2 302.1 154.8C302 155 301.9 155.1 301.8 155.3C301.5 155.9 301.2 156.6 301 157.3C300.8 158 300.8 158.7 300.7 159.4C300.7 159.6 300.7 159.8 300.7 160C300.9 162.5 301.9 164.6 303.6 166.4C304.4 167.2 305.3 167.9 306.2 168.5C306.9 169 307.6 169.4 308.3 169.8C308.8 170 309.2 170.2 309.7 170.4C310.4 170.8 311.2 171.1 312 171.1C312.8 171.3 313.6 171.2 314.3 171C315.6 170.6 317.1 169.6 317.7 168.3C317.9 168.1 318.1 167.9 318.3 167.7C319.6 166 321 164.2 321.9 162.2C322.3 161.2 322.8 160.2 323 159.1C323.4 157.5 323.5 156.5 323.1 154.9Z" fill="#ffffff" fill-rule="nonzero" opacity="1" stroke="none"/>
<path d="M52.4 182.9C50.5 190.3 62.1 193.2 63.9 185.8C65.8 178.4 54.2 175.5 52.4 182.9Z" fill="#ffffff" fill-rule="nonzero" opacity="1" stroke="none"/>
<path d="M77 39.4C78.9 32 67.3 29.1 65.5 36.5C63.6 43.9 75.1 46.8 77 39.4Z" fill="#ffffff" fill-rule="nonzero" opacity="1" stroke="none"/>
<path d="M344 479.3C342.1 486.7 353.7 489.6 355.5 482.2C357.4 474.8 345.8 471.8 344 479.3Z" fill="#ffffff" fill-rule="nonzero" opacity="1" stroke="none"/>
<path d="M241.2 259C243.1 251.6 231.5 248.7 229.7 256.1C227.8 263.5 239.3 266.4 241.2 259Z" fill="#ffffff" fill-rule="nonzero" opacity="1" stroke="none"/>
<path d="M178.7 326.6C166.3 329.5 166 343.6 167.9 353.7C168.2 355.6 169.2 356.8 170.4 357.4C176.4 363.7 186.1 366.3 194.1 362.4C202.5 358.4 205.3 348.6 202.1 340.1C198.8 331.2 188.2 324.4 178.7 326.6Z" fill="#ffffff" fill-rule="nonzero" opacity="1" stroke="none"/>
<path d="M219.7 91.6C207.3 94.5 207 108.6 208.9 118.7C209.2 120.6 210.2 121.8 211.4 122.4C217.4 128.7 227.1 131.3 235.1 127.4C243.5 123.4 246.3 113.6 243.1 105.1C239.8 96.2 229.2 89.4 219.7 91.6Z" fill="#ffffff" fill-rule="nonzero" opacity="1" stroke="none"/>
<path d="M165.6 264.5C168.7 251.9 168.3 236.9 154.7 230.8C142.5 225.3 124.4 230 117.4 241.7C106.1 260.6 123.4 281.1 143.1 281.8C154.2 282.1 163.2 275.3 165.6 264.5Z" fill="#ffffff" fill-rule="nonzero" opacity="1" stroke="none"/>
<path d="M41.8 434.9C39.9 442.3 51.5 445.2 53.3 437.8C55.2 430.4 43.7 427.5 41.8 434.9Z" fill="#ffffff" fill-rule="nonzero" opacity="1" stroke="none"/>
<path d="M240.8 188.9C238.9 196.3 250.5 199.2 252.3 191.8C254.2 184.4 242.7 181.5 240.8 188.9Z" fill="#ffffff" fill-rule="nonzero" opacity="1" stroke="none"/>
<path d="M60.1 297C58.2 304.4 69.8 307.3 71.6 299.9C73.5 292.5 62 289.6 60.1 297Z" fill="#ffffff" fill-rule="nonzero" opacity="1" stroke="none"/>
</g>
</g>
</svg>
