<?xml version="1.0" encoding="UTF-8" standalone="no"?>
<!DOCTYPE svg PUBLIC "-//W3C//DTD SVG 1.1//EN" "http://www.w3.org/Graphics/SVG/1.1/DTD/svg11.dtd">
<!-- Created with Vectornator (http://vectornator.io/) -->
<svg height="100%" stroke-miterlimit="10" style="fill-rule:nonzero;clip-rule:evenodd;stroke-linecap:round;stroke-linejoin:round;" version="1.1" viewBox="0 0 297.675 419.58" width="100%" xml:space="preserve" xmlns="http://www.w3.org/2000/svg" xmlns:vectornator="http://vectornator.io" xmlns:xlink="http://www.w3.org/1999/xlink">
<defs/>
<g id="Ebene-1" vectornator:layerName="Ebene 1">
<path d="M35.4077 208.236C33.931 206.659 33.9393 204.252 35.4261 202.86C36.9129 201.468 39.3153 201.618 40.7919 203.195C42.2685 204.772 42.2602 207.179 40.7734 208.571C39.2866 209.963 36.8843 209.813 35.4077 208.236Z" fill="#000000" fill-rule="nonzero" opacity="1" stroke="none"/>
<path d="M45.8551 198.038C44.3785 196.461 44.3868 194.054 45.8736 192.662C47.3604 191.27 49.7627 191.42 51.2393 192.997C52.7159 194.574 52.7077 196.981 51.2209 198.373C49.7341 199.765 47.3317 199.615 45.8551 198.038Z" fill="#000000" fill-rule="nonzero" opacity="1" stroke="none"/>
<path d="M55.798 188.977C54.3214 187.4 54.3296 184.993 55.8165 183.601C57.3033 182.209 59.7056 182.359 61.1822 183.936C62.6588 185.513 62.6506 187.92 61.1638 189.312C59.6769 190.704 57.2746 190.554 55.798 188.977Z" fill="#000000" fill-rule="nonzero" opacity="1" stroke="none"/>
<path d="M66.5201 178.64C65.0435 177.063 65.0518 174.656 66.5386 173.264C68.0254 171.872 70.4277 172.022 71.9044 173.599C73.381 175.176 73.3727 177.583 71.8859 178.975C70.3991 180.367 67.9968 180.217 66.5201 178.64Z" fill="#000000" fill-rule="nonzero" opacity="1" stroke="none"/>
<path d="M77.0854 168.59C75.6087 167.013 75.617 164.606 77.1038 163.214C78.5906 161.822 80.993 161.972 82.4696 163.549C83.9462 165.126 83.9379 167.533 82.4511 168.925C80.9643 170.317 78.562 170.167 77.0854 168.59Z" fill="#000000" fill-rule="nonzero" opacity="1" stroke="none"/>
<path d="M87.9846 158.442C86.508 156.865 86.5163 154.458 88.0031 153.066C89.4899 151.674 91.8922 151.824 93.3688 153.401C94.8454 154.978 94.8372 157.385 93.3504 158.777C91.8636 160.169 89.4612 160.019 87.9846 158.442Z" fill="#000000" fill-rule="nonzero" opacity="1" stroke="none"/>
<path d="M97.1323 149.937C95.6556 148.359 95.6639 145.952 97.1507 144.56C98.6375 143.168 101.04 143.318 102.516 144.895C103.993 146.473 103.985 148.88 102.498 150.272C101.011 151.664 98.6089 151.514 97.1323 149.937Z" fill="#000000" fill-rule="nonzero" opacity="1" stroke="none"/>
<path d="M107.58 139.738C106.103 138.161 106.111 135.754 107.598 134.362C109.085 132.97 111.487 133.12 112.964 134.697C114.441 136.274 114.432 138.681 112.945 140.073C111.459 141.465 109.056 141.315 107.58 139.738Z" fill="#000000" fill-rule="nonzero" opacity="1" stroke="none"/>
<path d="M117.523 130.678C116.046 129.1 116.054 126.693 117.541 125.301C119.028 123.909 121.43 124.059 122.907 125.636C124.383 127.214 124.375 129.621 122.888 131.013C121.402 132.405 118.999 132.255 117.523 130.678Z" fill="#000000" fill-rule="nonzero" opacity="1" stroke="none"/>
<path d="M128.245 120.34C126.768 118.763 126.776 116.356 128.263 114.964C129.75 113.572 132.152 113.722 133.629 115.299C135.106 116.876 135.097 119.283 133.61 120.675C132.124 122.067 129.721 121.917 128.245 120.34Z" fill="#000000" fill-rule="nonzero" opacity="1" stroke="none"/>
<path d="M138.81 110.29C137.333 108.713 137.342 106.306 138.828 104.914C140.315 103.522 142.718 103.672 144.194 105.249C145.671 106.827 145.663 109.234 144.176 110.626C142.689 112.018 140.287 111.868 138.81 110.29Z" fill="#000000" fill-rule="nonzero" opacity="1" stroke="none"/>
<path d="M149.709 100.142C148.233 98.5653 148.241 96.1583 149.728 94.7662C151.214 93.3742 153.617 93.5242 155.093 95.1013C156.57 96.6784 156.562 99.0854 155.075 100.477C153.588 101.87 151.186 101.72 149.709 100.142Z" fill="#000000" fill-rule="nonzero" opacity="1" stroke="none"/>
<path d="M45.5192 219.478C44.0426 217.901 44.0508 215.494 45.5376 214.102C47.0244 212.71 49.4268 212.86 50.9034 214.437C52.38 216.014 52.3717 218.421 50.8849 219.813C49.3981 221.205 46.9958 221.055 45.5192 219.478Z" fill="#000000" fill-rule="nonzero" opacity="1" stroke="none"/>
<path d="M55.9666 209.28C54.49 207.702 54.4983 205.295 55.9851 203.903C57.4719 202.511 59.8742 202.661 61.3508 204.238C62.8275 205.816 62.8192 208.223 61.3324 209.615C59.8456 211.007 57.4432 210.857 55.9666 209.28Z" fill="#000000" fill-rule="nonzero" opacity="1" stroke="none"/>
<path d="M65.9095 200.219C64.4329 198.642 64.4412 196.235 65.928 194.843C67.4148 193.451 69.8171 193.601 71.2937 195.178C72.7703 196.755 72.7621 199.162 71.2753 200.554C69.7885 201.946 67.3861 201.796 65.9095 200.219Z" fill="#000000" fill-rule="nonzero" opacity="1" stroke="none"/>
<path d="M76.6316 189.882C75.155 188.305 75.1633 185.898 76.6501 184.505C78.1369 183.113 80.5392 183.263 82.0159 184.841C83.4925 186.418 83.4842 188.825 81.9974 190.217C80.5106 191.609 78.1083 191.459 76.6316 189.882Z" fill="#000000" fill-rule="nonzero" opacity="1" stroke="none"/>
<path d="M87.1969 179.832C85.7203 178.255 85.7285 175.848 87.2153 174.456C88.7021 173.064 91.1045 173.214 92.5811 174.791C94.0577 176.368 94.0494 178.775 92.5626 180.167C91.0758 181.559 88.6735 181.409 87.1969 179.832Z" fill="#000000" fill-rule="nonzero" opacity="1" stroke="none"/>
<path d="M98.0961 169.684C96.6195 168.107 96.6278 165.7 98.1146 164.308C99.6014 162.916 102.004 163.066 103.48 164.643C104.957 166.22 104.949 168.627 103.462 170.019C101.975 171.411 99.5727 171.261 98.0961 169.684Z" fill="#000000" fill-rule="nonzero" opacity="1" stroke="none"/>
<path d="M107.244 161.178C105.767 159.601 105.775 157.194 107.262 155.802C108.749 154.41 111.151 154.56 112.628 156.137C114.105 157.714 114.096 160.121 112.61 161.513C111.123 162.905 108.72 162.755 107.244 161.178Z" fill="#000000" fill-rule="nonzero" opacity="1" stroke="none"/>
<path d="M117.691 150.98C116.215 149.403 116.223 146.996 117.71 145.604C119.196 144.212 121.599 144.362 123.075 145.939C124.552 147.516 124.544 149.923 123.057 151.315C121.57 152.707 119.168 152.557 117.691 150.98Z" fill="#000000" fill-rule="nonzero" opacity="1" stroke="none"/>
<path d="M127.634 141.919C126.157 140.342 126.166 137.935 127.653 136.543C129.139 135.151 131.542 135.301 133.018 136.878C134.495 138.455 134.487 140.862 133 142.254C131.513 143.646 129.111 143.496 127.634 141.919Z" fill="#000000" fill-rule="nonzero" opacity="1" stroke="none"/>
<path d="M138.356 131.582C136.88 130.005 136.888 127.598 138.375 126.206C139.862 124.814 142.264 124.964 143.74 126.541C145.217 128.118 145.209 130.525 143.722 131.917C142.235 133.309 139.833 133.159 138.356 131.582Z" fill="#000000" fill-rule="nonzero" opacity="1" stroke="none"/>
<path d="M148.921 121.532C147.445 119.955 147.453 117.548 148.94 116.156C150.427 114.764 152.829 114.914 154.306 116.491C155.782 118.068 155.774 120.475 154.287 121.867C152.8 123.259 150.398 123.109 148.921 121.532Z" fill="#000000" fill-rule="nonzero" opacity="1" stroke="none"/>
<path d="M159.821 111.384C158.344 109.807 158.352 107.4 159.839 106.008C161.326 104.616 163.728 104.766 165.205 106.343C166.682 107.92 166.673 110.327 165.186 111.719C163.7 113.111 161.297 112.961 159.821 111.384Z" fill="#000000" fill-rule="nonzero" opacity="1" stroke="none"/>
<path d="M54.5348 229.377C53.0581 227.8 53.0664 225.393 54.5532 224.001C56.04 222.609 58.4424 222.759 59.919 224.336C61.3956 225.913 61.3873 228.32 59.9005 229.712C58.4137 231.104 56.0114 230.954 54.5348 229.377Z" fill="#000000" fill-rule="nonzero" opacity="1" stroke="none"/>
<path d="M64.9822 219.179C63.5056 217.601 63.5138 215.194 65.0007 213.802C66.4875 212.41 68.8898 212.56 70.3664 214.137C71.843 215.715 71.8348 218.122 70.348 219.514C68.8612 220.906 66.4588 220.756 64.9822 219.179Z" fill="#000000" fill-rule="nonzero" opacity="1" stroke="none"/>
<path d="M74.9251 210.118C73.4485 208.541 73.4567 206.134 74.9435 204.742C76.4304 203.35 78.8327 203.5 80.3093 205.077C81.7859 206.654 81.7777 209.061 80.2908 210.453C78.804 211.845 76.4017 211.695 74.9251 210.118Z" fill="#000000" fill-rule="nonzero" opacity="1" stroke="none"/>
<path d="M85.6472 199.781C84.1706 198.204 84.1789 195.797 85.6657 194.405C87.1525 193.012 89.5548 193.162 91.0314 194.74C92.5081 196.317 92.4998 198.724 91.013 200.116C89.5262 201.508 87.1238 201.358 85.6472 199.781Z" fill="#000000" fill-rule="nonzero" opacity="1" stroke="none"/>
<path d="M96.2125 189.731C94.7358 188.154 94.7441 185.747 96.2309 184.355C97.7177 182.963 100.12 183.113 101.597 184.69C103.073 186.267 103.065 188.674 101.578 190.066C100.091 191.458 97.6891 191.308 96.2125 189.731Z" fill="#000000" fill-rule="nonzero" opacity="1" stroke="none"/>
<path d="M107.112 179.583C105.635 178.006 105.643 175.599 107.13 174.207C108.617 172.815 111.019 172.965 112.496 174.542C113.973 176.119 113.964 178.526 112.477 179.918C110.991 181.31 108.588 181.16 107.112 179.583Z" fill="#000000" fill-rule="nonzero" opacity="1" stroke="none"/>
<path d="M116.259 171.077C114.783 169.5 114.791 167.093 116.278 165.701C117.765 164.309 120.167 164.459 121.644 166.036C123.12 167.613 123.112 170.02 121.625 171.412C120.138 172.804 117.736 172.654 116.259 171.077Z" fill="#000000" fill-rule="nonzero" opacity="1" stroke="none"/>
<path d="M126.707 160.879C125.23 159.302 125.238 156.895 126.725 155.503C128.212 154.111 130.614 154.261 132.091 155.838C133.568 157.415 133.559 159.822 132.073 161.214C130.586 162.606 128.183 162.456 126.707 160.879Z" fill="#000000" fill-rule="nonzero" opacity="1" stroke="none"/>
<path d="M136.65 151.818C135.173 150.241 135.181 147.834 136.668 146.442C138.155 145.05 140.557 145.2 142.034 146.777C143.511 148.354 143.502 150.761 142.015 152.153C140.529 153.545 138.126 153.395 136.65 151.818Z" fill="#000000" fill-rule="nonzero" opacity="1" stroke="none"/>
<path d="M147.372 141.481C145.895 139.904 145.903 137.497 147.39 136.105C148.877 134.713 151.279 134.863 152.756 136.44C154.233 138.017 154.224 140.424 152.738 141.816C151.251 143.208 148.848 143.058 147.372 141.481Z" fill="#000000" fill-rule="nonzero" opacity="1" stroke="none"/>
<path d="M157.937 131.431C156.46 129.854 156.469 127.447 157.955 126.055C159.442 124.663 161.845 124.813 163.321 126.39C164.798 127.967 164.79 130.374 163.303 131.766C161.816 133.158 159.414 133.008 157.937 131.431Z" fill="#000000" fill-rule="nonzero" opacity="1" stroke="none"/>
<path d="M168.836 121.283C167.36 119.706 167.368 117.299 168.855 115.907C170.342 114.515 172.744 114.665 174.221 116.242C175.697 117.819 175.689 120.226 174.202 121.618C172.715 123.01 170.313 122.86 168.836 121.283Z" fill="#000000" fill-rule="nonzero" opacity="1" stroke="none"/>
<path d="M64.6463 240.619C63.1696 239.042 63.1779 236.635 64.6647 235.243C66.1515 233.85 68.5539 234 70.0305 235.578C71.5071 237.155 71.4988 239.562 70.012 240.954C68.5252 242.346 66.1229 242.196 64.6463 240.619Z" fill="#000000" fill-rule="nonzero" opacity="1" stroke="none"/>
<path d="M75.0937 230.42C73.6171 228.843 73.6254 226.436 75.1122 225.044C76.599 223.652 79.0013 223.802 80.4779 225.379C81.9545 226.956 81.9463 229.363 80.4595 230.755C78.9727 232.147 76.5703 231.997 75.0937 230.42Z" fill="#000000" fill-rule="nonzero" opacity="1" stroke="none"/>
<path d="M85.0366 221.36C83.56 219.783 83.5682 217.376 85.0551 215.984C86.5419 214.591 88.9442 214.741 90.4208 216.319C91.8974 217.896 91.8892 220.303 90.4024 221.695C88.9155 223.087 86.5132 222.937 85.0366 221.36Z" fill="#000000" fill-rule="nonzero" opacity="1" stroke="none"/>
<path d="M95.7587 211.022C94.2821 209.445 94.2904 207.038 95.7772 205.646C97.264 204.254 99.6663 204.404 101.143 205.981C102.62 207.558 102.611 209.965 101.124 211.358C99.6377 212.75 97.2354 212.6 95.7587 211.022Z" fill="#000000" fill-rule="nonzero" opacity="1" stroke="none"/>
<path d="M106.324 200.973C104.847 199.396 104.856 196.989 106.342 195.596C107.829 194.204 110.232 194.354 111.708 195.932C113.185 197.509 113.177 199.916 111.69 201.308C110.203 202.7 107.801 202.55 106.324 200.973Z" fill="#000000" fill-rule="nonzero" opacity="1" stroke="none"/>
<path d="M117.223 190.825C115.747 189.247 115.755 186.84 117.242 185.448C118.728 184.056 121.131 184.206 122.607 185.783C124.084 187.361 124.076 189.768 122.589 191.16C121.102 192.552 118.7 192.402 117.223 190.825Z" fill="#000000" fill-rule="nonzero" opacity="1" stroke="none"/>
<path d="M126.371 182.319C124.894 180.742 124.902 178.335 126.389 176.943C127.876 175.551 130.278 175.701 131.755 177.278C133.232 178.855 133.223 181.262 131.737 182.654C130.25 184.046 127.847 183.896 126.371 182.319Z" fill="#000000" fill-rule="nonzero" opacity="1" stroke="none"/>
<path d="M136.818 172.121C135.342 170.544 135.35 168.137 136.837 166.745C138.324 165.352 140.726 165.502 142.203 167.08C143.679 168.657 143.671 171.064 142.184 172.456C140.697 173.848 138.295 173.698 136.818 172.121Z" fill="#000000" fill-rule="nonzero" opacity="1" stroke="none"/>
<path d="M146.761 163.06C145.285 161.483 145.293 159.076 146.78 157.684C148.266 156.292 150.669 156.442 152.145 158.019C153.622 159.596 153.614 162.003 152.127 163.395C150.64 164.787 148.238 164.637 146.761 163.06Z" fill="#000000" fill-rule="nonzero" opacity="1" stroke="none"/>
<path d="M157.483 152.723C156.007 151.146 156.015 148.739 157.502 147.347C158.989 145.955 161.391 146.105 162.868 147.682C164.344 149.259 164.336 151.666 162.849 153.058C161.362 154.45 158.96 154.3 157.483 152.723Z" fill="#000000" fill-rule="nonzero" opacity="1" stroke="none"/>
<path d="M168.049 142.673C166.572 141.096 166.58 138.689 168.067 137.297C169.554 135.905 171.956 136.055 173.433 137.632C174.909 139.209 174.901 141.616 173.414 143.008C171.928 144.4 169.525 144.25 168.049 142.673Z" fill="#000000" fill-rule="nonzero" opacity="1" stroke="none"/>
<path d="M178.948 132.525C177.471 130.948 177.479 128.541 178.966 127.149C180.453 125.757 182.855 125.907 184.332 127.484C185.809 129.061 185.8 131.468 184.314 132.86C182.827 134.252 180.424 134.102 178.948 132.525Z" fill="#000000" fill-rule="nonzero" opacity="1" stroke="none"/>
<path d="M74.3043 251.019C72.8277 249.442 72.8359 247.035 74.3227 245.643C75.8096 244.25 78.2119 244.4 79.6885 245.978C81.1651 247.555 81.1569 249.962 79.67 251.354C78.1832 252.746 75.7809 252.596 74.3043 251.019Z" fill="#000000" fill-rule="nonzero" opacity="1" stroke="none"/>
<path d="M84.7517 240.82C83.2751 239.243 83.2834 236.836 84.7702 235.444C86.257 234.052 88.6593 234.202 90.1359 235.779C91.6126 237.356 91.6043 239.763 90.1175 241.155C88.6307 242.547 86.2283 242.397 84.7517 240.82Z" fill="#000000" fill-rule="nonzero" opacity="1" stroke="none"/>
<path d="M94.6946 231.76C93.218 230.183 93.2263 227.776 94.7131 226.384C96.1999 224.991 98.6022 225.141 100.079 226.719C101.555 228.296 101.547 230.703 100.06 232.095C98.5736 233.487 96.1712 233.337 94.6946 231.76Z" fill="#000000" fill-rule="nonzero" opacity="1" stroke="none"/>
<path d="M105.417 221.422C103.94 219.845 103.948 217.438 105.435 216.046C106.922 214.654 109.324 214.804 110.801 216.381C112.278 217.958 112.269 220.365 110.783 221.758C109.296 223.15 106.893 223 105.417 221.422Z" fill="#000000" fill-rule="nonzero" opacity="1" stroke="none"/>
<path d="M115.982 211.373C114.505 209.796 114.514 207.389 116 205.996C117.487 204.604 119.89 204.754 121.366 206.332C122.843 207.909 122.835 210.316 121.348 211.708C119.861 213.1 117.459 212.95 115.982 211.373Z" fill="#000000" fill-rule="nonzero" opacity="1" stroke="none"/>
<path d="M126.881 201.225C125.405 199.647 125.413 197.24 126.9 195.848C128.386 194.456 130.789 194.606 132.265 196.183C133.742 197.761 133.734 200.168 132.247 201.56C130.76 202.952 128.358 202.802 126.881 201.225Z" fill="#000000" fill-rule="nonzero" opacity="1" stroke="none"/>
<path d="M136.029 192.719C134.552 191.142 134.561 188.735 136.047 187.343C137.534 185.951 139.936 186.101 141.413 187.678C142.89 189.255 142.881 191.662 141.395 193.054C139.908 194.446 137.505 194.296 136.029 192.719Z" fill="#000000" fill-rule="nonzero" opacity="1" stroke="none"/>
<path d="M146.476 182.521C145 180.944 145.008 178.537 146.495 177.145C147.982 175.752 150.384 175.903 151.861 177.48C153.337 179.057 153.329 181.464 151.842 182.856C150.355 184.248 147.953 184.098 146.476 182.521Z" fill="#000000" fill-rule="nonzero" opacity="1" stroke="none"/>
<path d="M156.419 173.46C154.943 171.883 154.951 169.476 156.438 168.084C157.924 166.692 160.327 166.842 161.803 168.419C163.28 169.996 163.272 172.403 161.785 173.795C160.298 175.187 157.896 175.037 156.419 173.46Z" fill="#000000" fill-rule="nonzero" opacity="1" stroke="none"/>
<path d="M167.141 163.123C165.665 161.546 165.673 159.139 167.16 157.747C168.647 156.355 171.049 156.505 172.526 158.082C174.002 159.659 173.994 162.066 172.507 163.458C171.02 164.85 168.618 164.7 167.141 163.123Z" fill="#000000" fill-rule="nonzero" opacity="1" stroke="none"/>
<path d="M177.707 153.073C176.23 151.496 176.238 149.089 177.725 147.697C179.212 146.305 181.614 146.455 183.091 148.032C184.567 149.609 184.559 152.016 183.072 153.408C181.586 154.8 179.183 154.65 177.707 153.073Z" fill="#000000" fill-rule="nonzero" opacity="1" stroke="none"/>
<path d="M188.606 142.925C187.129 141.348 187.137 138.941 188.624 137.549C190.111 136.157 192.513 136.307 193.99 137.884C195.467 139.461 195.458 141.868 193.972 143.26C192.485 144.652 190.082 144.502 188.606 142.925Z" fill="#000000" fill-rule="nonzero" opacity="1" stroke="none"/>
<path d="M84.4158 262.26C82.9392 260.683 82.9474 258.276 84.4343 256.884C85.9211 255.492 88.3234 255.642 89.8 257.219C91.2766 258.796 91.2684 261.203 89.7816 262.596C88.2947 263.988 85.8924 263.838 84.4158 262.26Z" fill="#000000" fill-rule="nonzero" opacity="1" stroke="none"/>
<path d="M94.8632 252.062C93.3866 250.485 93.3949 248.078 94.8817 246.686C96.3685 245.294 98.7708 245.444 100.247 247.021C101.724 248.598 101.716 251.005 100.229 252.397C98.7422 253.789 96.3399 253.639 94.8632 252.062Z" fill="#000000" fill-rule="nonzero" opacity="1" stroke="none"/>
<path d="M104.806 243.001C103.33 241.424 103.338 239.017 104.825 237.625C106.311 236.233 108.714 236.383 110.19 237.96C111.667 239.537 111.659 241.944 110.172 243.337C108.685 244.729 106.283 244.579 104.806 243.001Z" fill="#000000" fill-rule="nonzero" opacity="1" stroke="none"/>
<path d="M115.528 232.664C114.052 231.087 114.06 228.68 115.547 227.288C117.034 225.896 119.436 226.046 120.912 227.623C122.389 229.2 122.381 231.607 120.894 232.999C119.407 234.391 117.005 234.241 115.528 232.664Z" fill="#000000" fill-rule="nonzero" opacity="1" stroke="none"/>
<path d="M126.093 222.614C124.617 221.037 124.625 218.63 126.112 217.238C127.599 215.846 130.001 215.996 131.478 217.573C132.954 219.15 132.946 221.557 131.459 222.949C129.972 224.342 127.57 224.192 126.093 222.614Z" fill="#000000" fill-rule="nonzero" opacity="1" stroke="none"/>
<path d="M136.993 212.466C135.516 210.889 135.524 208.482 137.011 207.09C138.498 205.698 140.9 205.848 142.377 207.425C143.854 209.002 143.845 211.409 142.358 212.801C140.872 214.193 138.469 214.043 136.993 212.466Z" fill="#000000" fill-rule="nonzero" opacity="1" stroke="none"/>
<path d="M146.14 203.961C144.664 202.384 144.672 199.977 146.159 198.585C147.646 197.193 150.048 197.343 151.525 198.92C153.001 200.497 152.993 202.904 151.506 204.296C150.019 205.688 147.617 205.538 146.14 203.961Z" fill="#000000" fill-rule="nonzero" opacity="1" stroke="none"/>
<path d="M156.588 193.762C155.111 192.185 155.119 189.778 156.606 188.386C158.093 186.994 160.495 187.144 161.972 188.721C163.449 190.298 163.44 192.705 161.954 194.098C160.467 195.49 158.064 195.34 156.588 193.762Z" fill="#000000" fill-rule="nonzero" opacity="1" stroke="none"/>
<path d="M166.531 184.702C165.054 183.125 165.062 180.718 166.549 179.326C168.036 177.934 170.438 178.084 171.915 179.661C173.392 181.238 173.383 183.645 171.896 185.037C170.41 186.429 168.007 186.279 166.531 184.702Z" fill="#000000" fill-rule="nonzero" opacity="1" stroke="none"/>
<path d="M177.253 174.365C175.776 172.787 175.784 170.38 177.271 168.988C178.758 167.596 181.16 167.746 182.637 169.323C184.114 170.901 184.105 173.308 182.619 174.7C181.132 176.092 178.729 175.942 177.253 174.365Z" fill="#000000" fill-rule="nonzero" opacity="1" stroke="none"/>
<path d="M187.818 164.315C186.341 162.738 186.35 160.331 187.837 158.939C189.323 157.547 191.726 157.697 193.202 159.274C194.679 160.851 194.671 163.258 193.184 164.65C191.697 166.042 189.295 165.892 187.818 164.315Z" fill="#000000" fill-rule="nonzero" opacity="1" stroke="none"/>
<path d="M198.717 154.167C197.241 152.59 197.249 150.183 198.736 148.791C200.223 147.398 202.625 147.548 204.102 149.126C205.578 150.703 205.57 153.11 204.083 154.502C202.596 155.894 200.194 155.744 198.717 154.167Z" fill="#000000" fill-rule="nonzero" opacity="1" stroke="none"/>
<path d="M93.4314 272.16C91.9548 270.582 91.963 268.175 93.4498 266.783C94.9366 265.391 97.339 265.541 98.8156 267.118C100.292 268.696 100.284 271.103 98.7971 272.495C97.3103 273.887 94.908 273.737 93.4314 272.16Z" fill="#000000" fill-rule="nonzero" opacity="1" stroke="none"/>
<path d="M103.879 261.961C102.402 260.384 102.41 257.977 103.897 256.585C105.384 255.193 107.786 255.343 109.263 256.92C110.74 258.497 110.731 260.904 109.245 262.296C107.758 263.688 105.355 263.538 103.879 261.961Z" fill="#000000" fill-rule="nonzero" opacity="1" stroke="none"/>
<path d="M113.822 252.9C112.345 251.323 112.353 248.916 113.84 247.524C115.327 246.132 117.729 246.282 119.206 247.859C120.683 249.436 120.674 251.843 119.187 253.236C117.701 254.628 115.298 254.478 113.822 252.9Z" fill="#000000" fill-rule="nonzero" opacity="1" stroke="none"/>
<path d="M124.544 242.563C123.067 240.986 123.075 238.579 124.562 237.187C126.049 235.795 128.451 235.945 129.928 237.522C131.405 239.099 131.396 241.506 129.91 242.898C128.423 244.29 126.02 244.14 124.544 242.563Z" fill="#000000" fill-rule="nonzero" opacity="1" stroke="none"/>
<path d="M135.109 232.513C133.632 230.936 133.641 228.529 135.128 227.137C136.614 225.745 139.017 225.895 140.493 227.472C141.97 229.049 141.962 231.456 140.475 232.849C138.988 234.241 136.586 234.091 135.109 232.513Z" fill="#000000" fill-rule="nonzero" opacity="1" stroke="none"/>
<path d="M146.008 222.365C144.532 220.788 144.54 218.381 146.027 216.989C147.514 215.597 149.916 215.747 151.393 217.324C152.869 218.901 152.861 221.308 151.374 222.7C149.887 224.092 147.485 223.942 146.008 222.365Z" fill="#000000" fill-rule="nonzero" opacity="1" stroke="none"/>
<path d="M155.156 213.86C153.679 212.283 153.688 209.876 155.174 208.484C156.661 207.092 159.064 207.242 160.54 208.819C162.017 210.396 162.009 212.803 160.522 214.195C159.035 215.587 156.633 215.437 155.156 213.86Z" fill="#000000" fill-rule="nonzero" opacity="1" stroke="none"/>
<path d="M165.603 203.662C164.127 202.084 164.135 199.677 165.622 198.285C167.109 196.893 169.511 197.043 170.988 198.62C172.464 200.198 172.456 202.605 170.969 203.997C169.482 205.389 167.08 205.239 165.603 203.662Z" fill="#000000" fill-rule="nonzero" opacity="1" stroke="none"/>
<path d="M175.546 194.601C174.07 193.024 174.078 190.617 175.565 189.225C177.052 187.833 179.454 187.983 180.931 189.56C182.407 191.137 182.399 193.544 180.912 194.936C179.425 196.328 177.023 196.178 175.546 194.601Z" fill="#000000" fill-rule="nonzero" opacity="1" stroke="none"/>
<path d="M186.268 184.264C184.792 182.687 184.8 180.28 186.287 178.887C187.774 177.495 190.176 177.645 191.653 179.223C193.129 180.8 193.121 183.207 191.634 184.599C190.147 185.991 187.745 185.841 186.268 184.264Z" fill="#000000" fill-rule="nonzero" opacity="1" stroke="none"/>
<path d="M196.834 174.214C195.357 172.637 195.365 170.23 196.852 168.838C198.339 167.446 200.741 167.596 202.218 169.173C203.694 170.75 203.686 173.157 202.199 174.549C200.713 175.941 198.31 175.791 196.834 174.214Z" fill="#000000" fill-rule="nonzero" opacity="1" stroke="none"/>
<path d="M207.733 164.066C206.256 162.489 206.265 160.082 207.751 158.69C209.238 157.298 211.641 157.448 213.117 159.025C214.594 160.602 214.585 163.009 213.099 164.401C211.612 165.793 209.21 165.643 207.733 164.066Z" fill="#000000" fill-rule="nonzero" opacity="1" stroke="none"/>
<path d="M103.543 283.401C102.066 281.824 102.075 279.417 103.561 278.025C105.048 276.633 107.45 276.783 108.927 278.36C110.404 279.937 110.395 282.344 108.909 283.736C107.422 285.128 105.02 284.978 103.543 283.401Z" fill="#000000" fill-rule="nonzero" opacity="1" stroke="none"/>
<path d="M113.99 273.203C112.514 271.626 112.522 269.219 114.009 267.827C115.496 266.435 117.898 266.585 119.375 268.162C120.851 269.739 120.843 272.146 119.356 273.538C117.869 274.93 115.467 274.78 113.99 273.203Z" fill="#000000" fill-rule="nonzero" opacity="1" stroke="none"/>
<path d="M123.933 264.142C122.457 262.565 122.465 260.158 123.952 258.766C125.438 257.374 127.841 257.524 129.317 259.101C130.794 260.678 130.786 263.085 129.299 264.477C127.812 265.869 125.41 265.719 123.933 264.142Z" fill="#000000" fill-rule="nonzero" opacity="1" stroke="none"/>
<path d="M134.655 253.805C133.179 252.228 133.187 249.821 134.674 248.429C136.161 247.037 138.563 247.187 140.04 248.764C141.516 250.341 141.508 252.748 140.021 254.14C138.534 255.532 136.132 255.382 134.655 253.805Z" fill="#000000" fill-rule="nonzero" opacity="1" stroke="none"/>
<path d="M145.221 243.755C143.744 242.178 143.752 239.771 145.239 238.379C146.726 236.987 149.128 237.137 150.605 238.714C152.081 240.291 152.073 242.698 150.586 244.09C149.1 245.482 146.697 245.332 145.221 243.755Z" fill="#000000" fill-rule="nonzero" opacity="1" stroke="none"/>
<path d="M156.12 233.607C154.643 232.03 154.651 229.623 156.138 228.231C157.625 226.839 160.027 226.989 161.504 228.566C162.981 230.143 162.972 232.55 161.486 233.942C159.999 235.334 157.596 235.184 156.12 233.607Z" fill="#000000" fill-rule="nonzero" opacity="1" stroke="none"/>
<path d="M165.267 225.102C163.791 223.525 163.799 221.118 165.286 219.725C166.773 218.333 169.175 218.483 170.652 220.061C172.128 221.638 172.12 224.045 170.633 225.437C169.146 226.829 166.744 226.679 165.267 225.102Z" fill="#000000" fill-rule="nonzero" opacity="1" stroke="none"/>
<path d="M175.715 214.903C174.238 213.326 174.247 210.919 175.733 209.527C177.22 208.135 179.623 208.285 181.099 209.862C182.576 211.439 182.567 213.846 181.081 215.238C179.594 216.63 177.192 216.48 175.715 214.903Z" fill="#000000" fill-rule="nonzero" opacity="1" stroke="none"/>
<path d="M185.658 205.843C184.181 204.266 184.189 201.859 185.676 200.466C187.163 199.074 189.565 199.224 191.042 200.802C192.519 202.379 192.51 204.786 191.024 206.178C189.537 207.57 187.134 207.42 185.658 205.843Z" fill="#000000" fill-rule="nonzero" opacity="1" stroke="none"/>
<path d="M196.38 195.505C194.903 193.928 194.912 191.521 196.398 190.129C197.885 188.737 200.288 188.887 201.764 190.464C203.241 192.041 203.233 194.448 201.746 195.84C200.259 197.233 197.857 197.083 196.38 195.505Z" fill="#000000" fill-rule="nonzero" opacity="1" stroke="none"/>
<path d="M206.945 185.456C205.469 183.878 205.477 181.471 206.964 180.079C208.45 178.687 210.853 178.837 212.329 180.414C213.806 181.992 213.798 184.399 212.311 185.791C210.824 187.183 208.422 187.033 206.945 185.456Z" fill="#000000" fill-rule="nonzero" opacity="1" stroke="none"/>
<path d="M217.844 175.308C216.368 173.73 216.376 171.323 217.863 169.931C219.35 168.539 221.752 168.689 223.229 170.266C224.705 171.844 224.697 174.251 223.21 175.643C221.723 177.035 219.321 176.885 217.844 175.308Z" fill="#000000" fill-rule="nonzero" opacity="1" stroke="none"/>
<path d="M112.983 293.905C111.507 292.328 111.515 289.921 113.002 288.528C114.489 287.136 116.891 287.286 118.367 288.864C119.844 290.441 119.836 292.848 118.349 294.24C116.862 295.632 114.46 295.482 112.983 293.905Z" fill="#000000" fill-rule="nonzero" opacity="1" stroke="none"/>
<path d="M123.431 283.706C121.954 282.129 121.962 279.722 123.449 278.33C124.936 276.938 127.338 277.088 128.815 278.665C130.292 280.242 130.283 282.649 128.796 284.041C127.31 285.433 124.907 285.283 123.431 283.706Z" fill="#000000" fill-rule="nonzero" opacity="1" stroke="none"/>
<path d="M133.374 274.646C131.897 273.069 131.905 270.662 133.392 269.269C134.879 267.877 137.281 268.027 138.758 269.605C140.234 271.182 140.226 273.589 138.739 274.981C137.253 276.373 134.85 276.223 133.374 274.646Z" fill="#000000" fill-rule="nonzero" opacity="1" stroke="none"/>
<path d="M144.096 264.308C142.619 262.731 142.627 260.324 144.114 258.932C145.601 257.54 148.003 257.69 149.48 259.267C150.957 260.844 150.948 263.251 149.461 264.643C147.975 266.036 145.572 265.886 144.096 264.308Z" fill="#000000" fill-rule="nonzero" opacity="1" stroke="none"/>
<path d="M154.661 254.259C153.184 252.681 153.193 250.274 154.679 248.882C156.166 247.49 158.569 247.64 160.045 249.217C161.522 250.795 161.514 253.202 160.027 254.594C158.54 255.986 156.138 255.836 154.661 254.259Z" fill="#000000" fill-rule="nonzero" opacity="1" stroke="none"/>
<path d="M165.56 244.111C164.084 242.533 164.092 240.126 165.579 238.734C167.065 237.342 169.468 237.492 170.944 239.069C172.421 240.647 172.413 243.054 170.926 244.446C169.439 245.838 167.037 245.688 165.56 244.111Z" fill="#000000" fill-rule="nonzero" opacity="1" stroke="none"/>
<path d="M174.708 235.605C173.231 234.028 173.239 231.621 174.726 230.229C176.213 228.837 178.615 228.987 180.092 230.564C181.569 232.141 181.56 234.548 180.074 235.94C178.587 237.332 176.184 237.182 174.708 235.605Z" fill="#000000" fill-rule="nonzero" opacity="1" stroke="none"/>
<path d="M185.155 225.407C183.679 223.83 183.687 221.423 185.174 220.03C186.661 218.638 189.063 218.788 190.54 220.366C192.016 221.943 192.008 224.35 190.521 225.742C189.034 227.134 186.632 226.984 185.155 225.407Z" fill="#000000" fill-rule="nonzero" opacity="1" stroke="none"/>
<path d="M195.098 216.346C193.622 214.769 193.63 212.362 195.117 210.97C196.603 209.578 199.006 209.728 200.482 211.305C201.959 212.882 201.951 215.289 200.464 216.681C198.977 218.073 196.575 217.923 195.098 216.346Z" fill="#000000" fill-rule="nonzero" opacity="1" stroke="none"/>
<path d="M205.82 206.009C204.344 204.432 204.352 202.025 205.839 200.633C207.326 199.241 209.728 199.391 211.205 200.968C212.681 202.545 212.673 204.952 211.186 206.344C209.699 207.736 207.297 207.586 205.82 206.009Z" fill="#000000" fill-rule="nonzero" opacity="1" stroke="none"/>
<path d="M216.386 195.959C214.909 194.382 214.917 191.975 216.404 190.583C217.891 189.191 220.293 189.341 221.77 190.918C223.246 192.495 223.238 194.902 221.751 196.294C220.264 197.686 217.862 197.536 216.386 195.959Z" fill="#000000" fill-rule="nonzero" opacity="1" stroke="none"/>
<path d="M227.285 185.811C225.808 184.234 225.816 181.827 227.303 180.435C228.79 179.043 231.192 179.193 232.669 180.77C234.146 182.347 234.137 184.754 232.651 186.146C231.164 187.538 228.761 187.388 227.285 185.811Z" fill="#000000" fill-rule="nonzero" opacity="1" stroke="none"/>
<path d="M123.095 305.146C121.618 303.569 121.626 301.162 123.113 299.77C124.6 298.378 127.002 298.528 128.479 300.105C129.956 301.682 129.947 304.089 128.461 305.482C126.974 306.874 124.571 306.724 123.095 305.146Z" fill="#000000" fill-rule="nonzero" opacity="1" stroke="none"/>
<path d="M133.542 294.948C132.066 293.371 132.074 290.964 133.561 289.572C135.047 288.18 137.45 288.33 138.926 289.907C140.403 291.484 140.395 293.891 138.908 295.283C137.421 296.675 135.019 296.525 133.542 294.948Z" fill="#000000" fill-rule="nonzero" opacity="1" stroke="none"/>
<path d="M143.485 285.887C142.008 284.31 142.017 281.903 143.504 280.511C144.99 279.119 147.393 279.269 148.869 280.846C150.346 282.423 150.338 284.83 148.851 286.222C147.364 287.615 144.962 287.465 143.485 285.887Z" fill="#000000" fill-rule="nonzero" opacity="1" stroke="none"/>
<path d="M154.207 275.55C152.731 273.973 152.739 271.566 154.226 270.174C155.713 268.782 158.115 268.932 159.591 270.509C161.068 272.086 161.06 274.493 159.573 275.885C158.086 277.277 155.684 277.127 154.207 275.55Z" fill="#000000" fill-rule="nonzero" opacity="1" stroke="none"/>
<path d="M164.772 265.5C163.296 263.923 163.304 261.516 164.791 260.124C166.278 258.732 168.68 258.882 170.157 260.459C171.633 262.036 171.625 264.443 170.138 265.835C168.651 267.227 166.249 267.077 164.772 265.5Z" fill="#000000" fill-rule="nonzero" opacity="1" stroke="none"/>
<path d="M175.672 255.352C174.195 253.775 174.203 251.368 175.69 249.976C177.177 248.584 179.579 248.734 181.056 250.311C182.533 251.888 182.524 254.295 181.037 255.687C179.551 257.079 177.148 256.929 175.672 255.352Z" fill="#000000" fill-rule="nonzero" opacity="1" stroke="none"/>
<path d="M184.819 246.847C183.343 245.27 183.351 242.863 184.838 241.471C186.325 240.079 188.727 240.229 190.204 241.806C191.68 243.383 191.672 245.79 190.185 247.182C188.698 248.574 186.296 248.424 184.819 246.847Z" fill="#000000" fill-rule="nonzero" opacity="1" stroke="none"/>
<path d="M195.267 236.648C193.79 235.071 193.798 232.664 195.285 231.272C196.772 229.88 199.174 230.03 200.651 231.607C202.128 233.184 202.119 235.591 200.633 236.984C199.146 238.376 196.743 238.226 195.267 236.648Z" fill="#000000" fill-rule="nonzero" opacity="1" stroke="none"/>
<path d="M205.21 227.588C203.733 226.011 203.741 223.604 205.228 222.212C206.715 220.82 209.117 220.97 210.594 222.547C212.071 224.124 212.062 226.531 210.575 227.923C209.089 229.315 206.686 229.165 205.21 227.588Z" fill="#000000" fill-rule="nonzero" opacity="1" stroke="none"/>
<path d="M215.932 217.251C214.455 215.673 214.463 213.266 215.95 211.874C217.437 210.482 219.839 210.632 221.316 212.209C222.793 213.787 222.784 216.194 221.298 217.586C219.811 218.978 217.408 218.828 215.932 217.251Z" fill="#000000" fill-rule="nonzero" opacity="1" stroke="none"/>
<path d="M226.497 207.201C225.02 205.624 225.029 203.217 226.516 201.825C228.002 200.433 230.405 200.583 231.881 202.16C233.358 203.737 233.35 206.144 231.863 207.536C230.376 208.928 227.974 208.778 226.497 207.201Z" fill="#000000" fill-rule="nonzero" opacity="1" stroke="none"/>
<path d="M237.396 197.053C235.92 195.476 235.928 193.069 237.415 191.676C238.902 190.284 241.304 190.434 242.781 192.012C244.257 193.589 244.249 195.996 242.762 197.388C241.275 198.78 238.873 198.63 237.396 197.053Z" fill="#000000" fill-rule="nonzero" opacity="1" stroke="none"/>
<path d="M132.11 315.045C130.634 313.468 130.642 311.061 132.129 309.669C133.616 308.277 136.018 308.427 137.495 310.004C138.971 311.581 138.963 313.988 137.476 315.381C135.989 316.773 133.587 316.623 132.11 315.045Z" fill="#000000" fill-rule="nonzero" opacity="1" stroke="none"/>
<path d="M142.558 304.847C141.081 303.27 141.089 300.863 142.576 299.471C144.063 298.079 146.465 298.229 147.942 299.806C149.419 301.383 149.41 303.79 147.924 305.182C146.437 306.574 144.034 306.424 142.558 304.847Z" fill="#000000" fill-rule="nonzero" opacity="1" stroke="none"/>
<path d="M152.501 295.786C151.024 294.209 151.032 291.802 152.519 290.41C154.006 289.018 156.408 289.168 157.885 290.745C159.362 292.322 159.353 294.729 157.866 296.122C156.38 297.514 153.977 297.364 152.501 295.786Z" fill="#000000" fill-rule="nonzero" opacity="1" stroke="none"/>
<path d="M163.223 285.449C161.746 283.872 161.754 281.465 163.241 280.073C164.728 278.681 167.13 278.831 168.607 280.408C170.084 281.985 170.075 284.392 168.589 285.784C167.102 287.176 164.699 287.026 163.223 285.449Z" fill="#000000" fill-rule="nonzero" opacity="1" stroke="none"/>
<path d="M173.788 275.399C172.311 273.822 172.32 271.415 173.807 270.023C175.293 268.631 177.696 268.781 179.172 270.358C180.649 271.935 180.641 274.342 179.154 275.734C177.667 277.127 175.265 276.977 173.788 275.399Z" fill="#000000" fill-rule="nonzero" opacity="1" stroke="none"/>
<path d="M184.687 265.251C183.211 263.674 183.219 261.267 184.706 259.875C186.193 258.483 188.595 258.633 190.072 260.21C191.548 261.787 191.54 264.194 190.053 265.586C188.566 266.978 186.164 266.828 184.687 265.251Z" fill="#000000" fill-rule="nonzero" opacity="1" stroke="none"/>
<path d="M193.835 256.746C192.358 255.169 192.367 252.762 193.853 251.37C195.34 249.978 197.743 250.128 199.219 251.705C200.696 253.282 200.688 255.689 199.201 257.081C197.714 258.473 195.312 258.323 193.835 256.746Z" fill="#000000" fill-rule="nonzero" opacity="1" stroke="none"/>
<path d="M204.282 246.547C202.806 244.97 202.814 242.563 204.301 241.171C205.788 239.779 208.19 239.929 209.667 241.506C211.143 243.083 211.135 245.49 209.648 246.883C208.161 248.275 205.759 248.125 204.282 246.547Z" fill="#000000" fill-rule="nonzero" opacity="1" stroke="none"/>
<path d="M214.225 237.487C212.749 235.91 212.757 233.503 214.244 232.111C215.731 230.719 218.133 230.869 219.609 232.446C221.086 234.023 221.078 236.43 219.591 237.822C218.104 239.214 215.702 239.064 214.225 237.487Z" fill="#000000" fill-rule="nonzero" opacity="1" stroke="none"/>
<path d="M224.947 227.15C223.471 225.572 223.479 223.165 224.966 221.773C226.453 220.381 228.855 220.531 230.332 222.108C231.808 223.686 231.8 226.093 230.313 227.485C228.826 228.877 226.424 228.727 224.947 227.15Z" fill="#000000" fill-rule="nonzero" opacity="1" stroke="none"/>
<path d="M235.513 217.1C234.036 215.523 234.044 213.116 235.531 211.724C237.018 210.332 239.42 210.482 240.897 212.059C242.373 213.636 242.365 216.043 240.878 217.435C239.392 218.827 236.989 218.677 235.513 217.1Z" fill="#000000" fill-rule="nonzero" opacity="1" stroke="none"/>
<path d="M246.412 206.952C244.935 205.375 244.944 202.968 246.43 201.576C247.917 200.183 250.319 200.333 251.796 201.911C253.273 203.488 253.264 205.895 251.778 207.287C250.291 208.679 247.889 208.529 246.412 206.952Z" fill="#000000" fill-rule="nonzero" opacity="1" stroke="none"/>
<path d="M142.222 326.287C140.745 324.71 140.754 322.303 142.24 320.911C143.727 319.519 146.129 319.669 147.606 321.246C149.083 322.823 149.074 325.23 147.588 326.622C146.101 328.014 143.698 327.864 142.222 326.287Z" fill="#000000" fill-rule="nonzero" opacity="1" stroke="none"/>
<path d="M152.669 316.089C151.193 314.512 151.201 312.105 152.688 310.713C154.175 309.321 156.577 309.471 158.054 311.048C159.53 312.625 159.522 315.032 158.035 316.424C156.548 317.816 154.146 317.666 152.669 316.089Z" fill="#000000" fill-rule="nonzero" opacity="1" stroke="none"/>
<path d="M162.612 307.028C161.136 305.451 161.144 303.044 162.631 301.652C164.117 300.26 166.52 300.41 167.996 301.987C169.473 303.564 169.465 305.971 167.978 307.363C166.491 308.755 164.089 308.605 162.612 307.028Z" fill="#000000" fill-rule="nonzero" opacity="1" stroke="none"/>
<path d="M173.334 296.691C171.858 295.114 171.866 292.707 173.353 291.315C174.84 289.923 177.242 290.073 178.719 291.65C180.195 293.227 180.187 295.634 178.7 297.026C177.213 298.418 174.811 298.268 173.334 296.691Z" fill="#000000" fill-rule="nonzero" opacity="1" stroke="none"/>
<path d="M183.9 286.641C182.423 285.064 182.431 282.657 183.918 281.265C185.405 279.873 187.807 280.023 189.284 281.6C190.76 283.177 190.752 285.584 189.265 286.976C187.779 288.368 185.376 288.218 183.9 286.641Z" fill="#000000" fill-rule="nonzero" opacity="1" stroke="none"/>
<path d="M194.799 276.493C193.322 274.916 193.33 272.509 194.817 271.117C196.304 269.725 198.706 269.875 200.183 271.452C201.66 273.029 201.651 275.436 200.165 276.828C198.678 278.22 196.275 278.07 194.799 276.493Z" fill="#000000" fill-rule="nonzero" opacity="1" stroke="none"/>
<path d="M203.946 267.988C202.47 266.41 202.478 264.003 203.965 262.611C205.452 261.219 207.854 261.369 209.331 262.947C210.807 264.524 210.799 266.931 209.312 268.323C207.825 269.715 205.423 269.565 203.946 267.988Z" fill="#000000" fill-rule="nonzero" opacity="1" stroke="none"/>
<path d="M214.394 257.789C212.917 256.212 212.926 253.805 214.412 252.413C215.899 251.021 218.301 251.171 219.778 252.748C221.255 254.325 221.246 256.732 219.76 258.124C218.273 259.516 215.871 259.366 214.394 257.789Z" fill="#000000" fill-rule="nonzero" opacity="1" stroke="none"/>
<path d="M224.337 248.729C222.86 247.151 222.868 244.744 224.355 243.352C225.842 241.96 228.244 242.11 229.721 243.687C231.198 245.265 231.189 247.672 229.703 249.064C228.216 250.456 225.813 250.306 224.337 248.729Z" fill="#000000" fill-rule="nonzero" opacity="1" stroke="none"/>
<path d="M235.059 238.391C233.582 236.814 233.591 234.407 235.077 233.015C236.564 231.623 238.967 231.773 240.443 233.35C241.92 234.927 241.911 237.334 240.425 238.726C238.938 240.118 236.536 239.968 235.059 238.391Z" fill="#000000" fill-rule="nonzero" opacity="1" stroke="none"/>
<path d="M245.624 228.342C244.148 226.764 244.156 224.357 245.643 222.965C247.129 221.573 249.532 221.723 251.008 223.3C252.485 224.878 252.477 227.285 250.99 228.677C249.503 230.069 247.101 229.919 245.624 228.342Z" fill="#000000" fill-rule="nonzero" opacity="1" stroke="none"/>
<path d="M256.523 218.193C255.047 216.616 255.055 214.209 256.542 212.817C258.029 211.425 260.431 211.575 261.908 213.152C263.384 214.729 263.376 217.136 261.889 218.529C260.402 219.921 258 219.771 256.523 218.193Z" fill="#000000" fill-rule="nonzero" opacity="1" stroke="none"/>
</g>
</svg>
