<?xml version="1.0" encoding="UTF-8" standalone="no"?>
<!DOCTYPE svg PUBLIC "-//W3C//DTD SVG 1.1//EN" "http://www.w3.org/Graphics/SVG/1.1/DTD/svg11.dtd">
<!-- Created with Vectornator (http://vectornator.io/) -->
<svg height="100%" stroke-miterlimit="10" style="fill-rule:nonzero;clip-rule:evenodd;stroke-linecap:round;stroke-linejoin:round;" version="1.1" viewBox="0 0 452 454" width="100%" xml:space="preserve" xmlns="http://www.w3.org/2000/svg" xmlns:vectornator="http://vectornator.io" xmlns:xlink="http://www.w3.org/1999/xlink">
<defs/>
<g id="OBJECTS" vectornator:layerName="OBJECTS">
<g opacity="1">
<path d="M404.5 118.2C382.2 134.3 360.1 150.5 336.6 164.9C313 179.3 288.7 192.4 264.2 205C239.5 217.7 214.6 229.8 189.9 242.3C163.9 255.5 138.1 269.2 112.8 283.7C86.6 298.6 60.9 314.2 35.6 330.6C32.5 332.6 29.3 334.6 26.2 336.7C22.9 338.8 26 344.2 29.3 342C54.3 325.2 79.9 309.3 105.9 294.1C131.4 279.2 157.5 265 183.8 251.5C208.6 238.8 233.5 226.6 258.3 214C282.9 201.5 307.4 188.5 331.1 174.3C342.9 167.2 354.5 159.8 365.9 152C377.2 144.3 388.5 136.2 398.7 127.1C401.2 124.8 403.7 122.5 406.2 120.2C407.1 119.2 405.7 117.3 404.5 118.2L404.5 118.2Z" fill="#478990" fill-rule="nonzero" opacity="1" stroke="none"/>
<path d="M385.7 95.4C379.8 99 374.4 103.3 368.9 107.4C363.5 111.4 358 115.2 352.4 119C341.1 126.7 329.4 134 317.6 141C293.9 154.9 269.4 167.5 244.7 179.7C220 191.9 195.1 203.6 170.5 215.9C146 228.1 121.8 240.8 98.5 255C75.1 269.2 52.6 284.9 31.9 302.7C29.3 304.9 26.8 307.1 24.3 309.4C21.2 312.2 25.8 316.7 28.8 313.9C49 295.7 70.9 279.8 93.9 265.3C117 250.7 141 237.7 165.3 225.3C189.9 212.7 214.7 200.8 239.4 188.5C264 176.3 288.4 163.8 312.2 150.1C324 143.3 335.6 136.1 347 128.6C358.3 121.1 369.6 113.2 380 104.5C382.6 102.3 385 100.1 387.3 97.6C388.4 96.4 387 94.5 385.7 95.4L385.7 95.4Z" fill="#478990" fill-rule="nonzero" opacity="1" stroke="none"/>
<path d="M372 72.3C364.6 76.9 357.8 82.3 350.7 87.4C343.7 92.4 336.6 97.3 329.5 102.2C315.2 112 300.7 121.4 285.9 130.4C256.5 148.4 226.2 164.8 195.1 179.7C181.3 186.3 167.2 192 153.3 198.3C142.7 203.1 132.4 208.3 122.1 213.7C100.6 225 79.5 237.2 58.6 249.6C46.8 256.6 35 263.5 23.5 270.9C23.3 271 23.2 271.1 23 271.2C19.7 273.3 22.7 278.6 26.1 276.5C35.7 270.5 45.4 264.6 55.2 258.8C75.8 246.5 96.5 234.6 117.5 223C127.9 217.2 138.5 211.6 149.2 206.3C161.4 200.2 173.9 194.9 186.2 189.2C217.7 174.6 248.3 158.4 278 140.5C307.6 122.6 336.5 103.2 363.8 81.8C367 79.3 370.2 76.7 373.2 73.8C373.9 73.1 372.9 71.7 372 72.3L372 72.3Z" fill="#478990" fill-rule="nonzero" opacity="1" stroke="none"/>
<path d="M8.8 252.3C20.3 246.9 31.4 240.4 42.5 234.3C53.7 228.1 64.9 221.8 76.1 215.5C98.4 203 120.7 190.4 142.9 177.8C165 165.2 187.1 152.6 209.2 140C231.4 127.3 253.6 114.7 275.8 102C298 89.3 320.2 76.7 342.4 64C345.2 62.4 347.9 60.8 350.7 59.3C353.9 57.5 351 52.5 347.8 54.3C325.6 67 303.4 79.7 281.2 92.3C259 105 236.8 117.7 214.6 130.3C192.5 142.9 170.4 155.5 148.3 168.2C126.1 180.9 104 193.6 81.8 206.4C59.7 219.2 37.6 232.1 15.6 245.1C12.9 246.7 10.2 248.5 7.60001 250.3C6.5 251.2 7.5 252.9 8.8 252.3L8.8 252.3Z" fill="#478990" fill-rule="nonzero" opacity="1" stroke="none"/>
<path d="M316.1 41.7C310.8 43.3 305.8 45.9 300.8 48.3C295.7 50.7 290.7 53.2 285.7 55.7C275.7 60.8 265.7 65.9 255.8 71.2C236 81.8 216.2 92.5 196.6 103.5C177 114.5 157.5 125.7 138.1 137.1C118.7 148.5 99.5 160.1 80.3 171.9C61 183.7 42 195.8 23 208C20.7 209.5 18.4 211 16 212.5C13.1 214.4 15.8 219 18.7 217.1C37.5 204.8 56.5 192.7 75.6 180.9C94.7 169 113.9 157.4 133.2 145.9C152.5 134.5 171.8 123.3 191.3 112.3C210.9 101.3 230.6 90.4 250.4 79.8C270.2 69.2 290.2 58.9 309.8 47.9C312.2 46.5 314.5 45.2 316.8 43.5C317.7 42.9 317.2 41.3 316.1 41.7L316.1 41.7Z" fill="#478990" fill-rule="nonzero" opacity="1" stroke="none"/>
<path d="M22.8 182.7C27.4 179.9 31.6 176.7 36 173.5C40.4 170.4 44.8 167.3 49.2 164.2C58 158 66.9 152 76 146.3C94.1 134.8 112.8 124.3 131.9 114.6C149.4 105.8 167.3 97.9 185.1 89.7C202.6 81.7 220 73.4 236.7 63.6C253.1 54 268.8 42.9 282.5 29.7C284.2 28.1 285.9 26.4 287.5 24.7C289.9 22.2 286.1 18.3 283.6 20.8C270.5 34.5 255.4 45.9 239.3 55.7C223 65.7 205.7 74.2 188.4 82.3C170.9 90.5 153.2 98.3 135.9 106.8C116.7 116.3 98 126.8 79.8 138.2C61.7 149.6 43.9 161.8 27.4 175.4C25.4 177.1 23.4 178.8 21.5 180.7C20.4 181.8 21.6 183.4 22.8 182.7L22.8 182.7Z" fill="#478990" fill-rule="nonzero" opacity="1" stroke="none"/>
<path d="M247.6 18.2C239.9 21.3 232.4 25 225 28.7C217.4 32.5 209.9 36.3 202.4 40.2C187.6 48 172.9 56 158.3 64.2C143.6 72.4 129.1 80.8 114.6 89.4C100.2 97.9 85.9 106.6 71.6 115.4C57.3 124.3 43.1 133.2 28.9 142.3C27.2 143.4 25.5 144.6 23.8 145.8C22.7 146.6 22.1 148.1 22.9 149.4C23.6 150.6 25.2 151 26.5 150.3C30.2 148.3 33.6 145.9 37.1 143.6C40.6 141.3 44.1 139 47.6 136.8C54.6 132.3 61.7 127.8 68.8 123.3C83 114.4 97.3 105.7 111.7 97.1C126.1 88.5 140.5 80.1 155.1 71.8C169.6 63.5 184.3 55.4 198.9 47.2C213.6 39.1 228.4 31.1 243 22.8C244.8 21.8 246.5 20.6 248.2 19.6C249 19.2 248.5 17.8 247.6 18.2L247.6 18.2Z" fill="#478990" fill-rule="nonzero" opacity="1" stroke="none"/>
<path d="M56.7 93.5C57.2 93.5 57.9 93.5 58.4 93.4C59 93.2 59.6 92.9 60.2 92.6C61.4 92.1 62.5 91.6 63.7 91.1C66 90.1 68.3 88.9 70.5 87.8C75 85.6 79.4 83.2 83.9 80.9C92.8 76.2 101.7 71.5 110.6 66.7C119.5 61.9 128.3 57.1 137.2 52.4C146 47.6 154.8 42.9 163.7 38.1C172.6 33.3 181.4 28.6 190.3 23.7C191.4 23.1 192.5 22.5 193.6 21.9C194.8 21.2 195.3 19.5 194.5 18.3C193.7 17.1 192.2 16.7 190.9 17.4C182 22.2 173.2 27 164.4 31.8C155.6 36.6 146.7 41.5 137.9 46.3C129.1 51.1 120.2 56 111.4 60.8C102.6 65.6 93.8 70.4 85.1 75.3C76.3 80.3 67.5 85.1 59.1 90.6C58.6 90.9 58 91.2 57.5 91.7C57.1 92.1 56.8 92.6 56.5 93C56.2 93.2 56.4 93.6 56.7 93.5L56.7 93.5Z" fill="#478990" fill-rule="nonzero" opacity="1" stroke="none"/>
<path d="M419.7 146.4C413.3 148.8 407.3 152.1 401.3 155.2C395.3 158.3 389.3 161.6 383.4 164.9C371.4 171.4 359.4 178.1 347.4 184.7C323.5 198 299.6 211.3 275.8 224.8C252 238.3 228.3 251.9 204.6 265.6C180.9 279.3 157.3 293.1 133.7 307C110.2 320.8 86.8 334.8 63.5 348.8C60.5 350.6 57.6 352.4 54.6 354.1C51.5 356 54.3 360.8 57.4 359C80.8 344.9 104.3 330.9 127.9 316.9C151.4 303 174.9 289.3 198.4 275.6C221.9 261.9 245.6 248.4 269.3 234.9C293.1 221.4 316.9 207.9 340.8 194.6C352.7 187.9 364.7 181.3 376.7 174.7C388.7 168.1 400.7 161.5 412.4 154.5C415.3 152.8 418.1 151 420.8 149C422 148.2 421.4 145.8 419.7 146.4L419.7 146.4Z" fill="#478990" fill-rule="nonzero" opacity="1" stroke="none"/>
<path d="M72.7 371.5C97 366 120.4 356 142.8 345.2C165.5 334.3 187.3 321.8 208.8 308.8C230.4 295.6 251.7 281.9 273.1 268.6C295.7 254.5 318.5 241 341.9 228.3C366.5 214.9 391.4 202.2 416.4 189.6C419.4 188.1 422.5 186.5 425.5 185C428.5 183.5 425.9 178.9 422.8 180.4C397.9 193 373 205.5 348.5 218.7C324.9 231.4 301.6 244.8 278.8 258.9C257.3 272.2 236.1 285.9 214.5 299.2C193.3 312.3 171.8 325 149.6 336.5C127.4 348 104.4 358.2 80.7 366.1C77.8 367.1 74.9 368.2 72 369.2C70.7 369.8 71.2 371.9 72.7 371.5L72.7 371.5Z" fill="#478990" fill-rule="nonzero" opacity="1" stroke="none"/>
<path d="M432.9 201.6C427.1 204.2 421.7 207.5 416.3 210.6C410.8 213.8 405.4 217 400 220.2C389.2 226.7 378.4 233.3 367.6 239.9C346 253.1 324.4 266.4 302.8 279.6C281.2 292.8 259.6 306 237.8 319C216 332 194.1 344.7 172 357C149.9 369.2 127.6 381 105 392.2C102.1 393.6 99.4 395 96.8 396.8C94.9 398 96.1 401.5 98.4 400.7C104.4 398.7 109.9 395.6 115.5 392.8C121.1 390 126.7 387.1 132.3 384.2C143.6 378.3 154.8 372.3 166 366.2C188.3 354 210.3 341.3 232.2 328.4C254 315.5 275.7 302.4 297.2 289C318.8 275.6 340.4 262.1 361.9 248.6C383.4 235.1 405 221.8 426.4 208.2C429 206.6 431.4 204.9 433.8 203C434.7 202.3 433.7 201.2 432.9 201.6L432.9 201.6Z" fill="#478990" fill-rule="nonzero" opacity="1" stroke="none"/>
<path d="M121.9 414.8C123.8 413.7 125.7 412.7 127.5 411.7C132.4 409.1 137.9 405.4 142.9 402.3C150.6 397.4 158.4 392.5 166.2 387.6C176.2 381.4 186.1 375.1 196.1 369C207.7 361.9 219.2 354.9 230.9 348C243.6 340.4 256.4 333 269.2 325.5C282.4 317.7 295.8 310.1 309.1 302.5C322.4 295 335.7 287.6 349.1 280.4C361.8 273.6 374.6 267 387.5 260.6C399.2 254.8 411 249.2 423 244.1C425.5 243 427.9 242 430.6 240.9C432 240.3 433.1 239 432.6 237.3C432.2 235.9 430.5 234.7 429 235.3C417.3 240.2 405.7 245.6 394.3 251.2C381.6 257.4 369 263.9 356.5 270.5C343.2 277.6 329.9 284.8 316.8 292.2C303.4 299.7 290.1 307.4 276.8 315.2C263.8 322.8 251 330.6 238.2 338.4C226.3 345.7 214.4 353 202.5 360.5C192.1 367 181.7 373.6 171.3 380.1C162.9 385.4 154.5 390.8 146.2 396.2C140.5 399.9 134.2 403.7 129 407.6C126.4 409.5 124 411.2 121.4 413.3C121.3 413.4 121.2 413.5 121.1 413.5C120.4 414.1 121.1 415.3 121.9 414.8L121.9 414.8Z" fill="#478990" fill-rule="nonzero" opacity="1" stroke="none"/>
<path d="M424.6 273.8C415.2 277.8 406.4 283 397.4 287.8C388.4 292.6 379.5 297.6 370.6 302.5C352.8 312.2 334.9 321.9 317 331.3C299 340.8 280.9 350.2 262.7 359.4C244.6 368.6 226.5 377.6 208.2 386.5C189.9 395.4 171.5 404.2 153 412.8C150.7 413.9 148.5 414.9 146.2 416C144.9 416.6 144.6 418.5 145.3 419.6C146.1 420.9 147.6 421.1 148.9 420.5C167.4 411.9 185.8 403.2 204.1 394.3C222.4 385.5 240.5 376.5 258.6 367.3C276.8 358.1 294.9 348.7 312.9 339.2C330.8 329.7 348.7 320.1 366.4 310.3C375.3 305.4 384.2 300.3 393 295.3C401.8 290.3 410.8 285.2 419.2 279.6C421.3 278.2 423.4 276.8 425.4 275.3C426.3 274.6 425.6 273.3 424.6 273.8L424.6 273.8Z" fill="#478990" fill-rule="nonzero" opacity="1" stroke="none"/>
<path d="M201.8 433.7C209.2 430.6 216.3 426.6 223.4 422.8C230.4 419 237.4 415.2 244.4 411.3C258.5 403.6 272.6 395.9 286.6 388.2C300.7 380.5 314.9 372.7 329.1 365.1C343.2 357.4 357.3 349.7 371.3 342C385.4 334.3 399.4 326.6 413.5 318.9C415.3 317.9 417 316.9 418.6 315.7C419.5 315 420 314 419.5 312.9C419.1 312 417.9 311.2 416.9 311.6C413 313 409.5 315.1 406 317.1C402.5 319 398.9 321 395.4 322.9C388.4 326.7 381.4 330.6 374.4 334.4C360.3 342.1 346.3 349.8 332.2 357.6C318.1 365.4 304 373.2 289.9 381C275.8 388.7 261.8 396.4 247.7 404.2C233.7 412 219.6 419.6 205.7 427.6C203.9 428.6 202.3 429.8 200.7 430.9C199.4 431.8 200.1 434.4 201.8 433.7L201.8 433.7Z" fill="#478990" fill-rule="nonzero" opacity="1" stroke="none"/>
<path d="M379.2 361.9C378.6 362 378 362 377.5 362.2C376.9 362.4 376.3 362.7 375.7 362.9C374.6 363.3 373.4 363.8 372.3 364.3C370 365.2 367.6 366.2 365.3 367.2C360.8 369.2 356.4 371.3 351.9 373.3C343 377.5 334.2 382 325.6 386.6C317 391.2 308.5 396.1 300 401C291.6 406 283.3 411.2 275.1 416.5C266.9 421.9 258.8 427.5 250.8 433.2C249.7 434 248.6 434.8 247.6 435.7C246.6 436.6 246.6 438.2 247.4 439.3C248.2 440.4 249.7 440.7 250.9 440C253 438.8 255 437.2 257 435.8C259 434.4 261 433 263 431.6C267 428.8 271.1 426 275.1 423.3C283.2 417.9 291.5 412.6 299.8 407.5C308.1 402.4 316.6 397.4 325.1 392.7C333.6 387.9 342.3 383.4 351 378.9C359.7 374.4 368.5 370.2 377.2 365.8C377.7 365.5 378.2 365.3 378.7 365C379.3 364.7 379.8 364.2 380.3 363.8C380.7 363.5 380.7 362.8 380.5 362.4C380.2 362 379.7 361.8 379.2 361.9L379.2 361.9Z" fill="#478990" fill-rule="nonzero" opacity="1" stroke="none"/>
</g>
</g>
</svg>
