<?xml version="1.0" encoding="UTF-8" standalone="no"?>
<!DOCTYPE svg PUBLIC "-//W3C//DTD SVG 1.1//EN" "http://www.w3.org/Graphics/SVG/1.1/DTD/svg11.dtd">
<!-- Created with Vectornator (http://vectornator.io/) -->
<svg height="100%" stroke-miterlimit="10" style="fill-rule:nonzero;clip-rule:evenodd;stroke-linecap:round;stroke-linejoin:round;" version="1.1" viewBox="0 0 935 701" width="100%" xml:space="preserve" xmlns="http://www.w3.org/2000/svg" xmlns:vectornator="http://vectornator.io" xmlns:xlink="http://www.w3.org/1999/xlink">
<defs/>
<g id="Untitled" vectornator:layerName="Untitled">
<path d="M135.015 22.4756C135.015 25.2794 132.828 27.5524 130.13 27.5524C127.431 27.5524 125.244 25.2794 125.244 22.4756C125.244 19.6727 127.431 17.4005 130.128 17.4005C132.825 17.4005 135.012 19.6727 135.012 22.4756L135.015 22.4756ZM196.771 22.4756C196.771 25.2785 194.584 27.5507 191.887 27.5507C189.19 27.5507 187.003 25.2785 187.003 22.4756C187.003 19.6727 189.19 17.4005 191.887 17.4005C194.584 17.4005 196.771 19.6727 196.771 22.4756ZM258.53 22.4756C258.53 25.2794 256.342 27.5524 253.644 27.5524C250.946 27.5524 248.759 25.2794 248.759 22.4756C248.759 19.6717 250.946 17.3988 253.644 17.3988C256.342 17.3988 258.53 19.6717 258.53 22.4756ZM320.289 22.4756C320.289 25.2794 318.101 27.5524 315.403 27.5524C312.705 27.5524 310.518 25.2794 310.518 22.4756C310.518 19.6727 312.704 17.4005 315.402 17.4005C318.099 17.4005 320.285 19.6727 320.285 22.4756L320.289 22.4756ZM382.048 22.4756C382.048 25.2794 379.86 27.5524 377.162 27.5524C374.464 27.5524 372.277 25.2794 372.277 22.4756C372.277 19.6727 374.463 17.4005 377.16 17.4005C379.858 17.4005 382.044 19.6727 382.044 22.4756L382.048 22.4756ZM443.803 22.4756C443.803 25.2785 441.617 27.5507 438.919 27.5507C436.222 27.5507 434.035 25.2785 434.035 22.4756C434.035 19.6727 436.222 17.4005 438.919 17.4005C441.617 17.4005 443.803 19.6727 443.803 22.4756ZM505.562 22.4756C505.562 25.2785 503.376 27.5507 500.678 27.5507C497.981 27.5507 495.794 25.2785 495.794 22.4756C495.794 19.6727 497.981 17.4005 500.678 17.4005C503.376 17.4005 505.562 19.6727 505.562 22.4756ZM567.324 22.4756C567.324 25.2794 565.137 27.5524 562.439 27.5524C559.74 27.5524 557.553 25.2794 557.553 22.4756C557.553 19.6717 559.74 17.3988 562.439 17.3988C565.137 17.3988 567.324 19.6717 567.324 22.4756ZM629.083 22.4756C629.083 25.2794 626.896 27.5524 624.197 27.5524C621.499 27.5524 619.312 25.2794 619.312 22.4756C619.312 19.6727 621.498 17.4005 624.196 17.4005C626.893 17.4005 629.08 19.6727 629.08 22.4756L629.083 22.4756ZM690.842 22.4756C690.843 25.281 688.654 27.5558 685.955 27.5558C683.255 27.5558 681.067 25.281 681.068 22.4756C681.068 19.6717 683.255 17.3988 685.953 17.3988C688.651 17.3988 690.839 19.6717 690.839 22.4756L690.842 22.4756ZM752.598 22.4756C752.598 25.2785 750.411 27.5507 747.714 27.5507C745.016 27.5507 742.83 25.2785 742.83 22.4756C742.83 19.6727 745.016 17.4005 747.714 17.4005C750.411 17.4005 752.598 19.6727 752.598 22.4756ZM814.356 22.4756C814.356 25.2794 812.169 27.5524 809.471 27.5524C806.773 27.5524 804.585 25.2794 804.585 22.4756C804.585 19.6717 806.773 17.3988 809.471 17.3988C812.169 17.3988 814.356 19.6717 814.356 22.4756ZM135.015 87.5149C135.016 90.3197 132.827 92.5934 130.128 92.5925C127.429 92.5916 125.242 90.3163 125.244 87.5115C125.245 84.7086 127.432 82.4372 130.13 82.4381C132.827 82.439 135.013 84.712 135.012 87.5149L135.015 87.5149ZM196.771 87.5149C196.77 90.3178 194.583 92.5893 191.885 92.5883C189.188 92.5874 187.002 90.3144 187.003 87.5115C187.004 84.7086 189.191 82.4372 191.889 82.4381C194.586 82.439 196.772 84.712 196.771 87.5149ZM258.53 87.5149C258.53 90.3197 256.342 92.5934 253.643 92.5925C250.943 92.5916 248.756 90.3163 248.759 87.5115C248.761 84.7086 250.949 82.4379 253.646 82.4389C256.343 82.4398 258.529 84.712 258.53 87.5149ZM320.289 87.5149C320.289 90.3197 318.101 92.5934 315.402 92.5925C312.702 92.5916 310.515 90.3163 310.518 87.5115C310.518 84.7086 312.706 82.4372 315.403 82.4381C318.1 82.439 320.286 84.712 320.285 87.5149L320.289 87.5149ZM382.048 87.5149C382.048 90.3197 379.86 92.5934 377.16 92.5925C374.461 92.5916 372.274 90.3163 372.277 87.5115C372.277 84.7086 374.465 82.4372 377.162 82.4381C379.859 82.439 382.045 84.712 382.044 87.5149L382.048 87.5149ZM443.803 87.5149C443.803 90.3178 441.617 92.59 438.919 92.59C436.222 92.59 434.035 90.3178 434.035 87.5149C434.035 84.712 436.222 82.4398 438.919 82.4398C441.617 82.4398 443.803 84.712 443.803 87.5149ZM505.562 87.5149C505.562 90.3178 503.376 92.59 500.678 92.59C497.981 92.59 495.794 90.3178 495.794 87.5149C495.794 84.712 497.981 82.4398 500.678 82.4398C503.376 82.4398 505.562 84.712 505.562 87.5149ZM567.324 87.5149C567.325 90.3197 565.136 92.5934 562.437 92.5925C559.738 92.5916 557.551 90.3163 557.553 87.5115C557.555 84.7086 559.743 82.4379 562.44 82.4389C565.138 82.4398 567.324 84.712 567.324 87.5149ZM629.083 87.5149C629.083 90.3197 626.895 92.5934 624.196 92.5925C621.497 92.5916 619.31 90.3163 619.312 87.5115C619.313 84.7086 621.5 82.4372 624.197 82.4381C626.895 82.439 629.081 84.712 629.08 87.5149L629.083 87.5149ZM690.842 87.5149C690.841 90.3197 688.652 92.5927 685.953 92.5917C683.254 92.5908 681.067 90.3163 681.068 87.5115C681.07 84.7086 683.257 82.4379 685.955 82.4389C688.652 82.4398 690.838 84.712 690.839 87.5149L690.842 87.5149ZM752.598 87.5149C752.597 90.3178 750.409 92.5893 747.712 92.5883C745.015 92.5874 742.829 90.3144 742.83 87.5115C742.831 84.7086 745.018 82.4372 747.715 82.4381C750.413 82.439 752.599 84.712 752.598 87.5149ZM814.356 87.5149C814.357 90.3197 812.168 92.5934 809.469 92.5925C806.77 92.5916 804.583 90.3163 804.585 87.5115C804.587 84.7086 806.775 82.4379 809.472 82.4389C812.17 82.4398 814.356 84.712 814.356 87.5149ZM135.015 152.558C135.016 155.362 132.827 157.636 130.128 157.635C127.429 157.634 125.242 155.359 125.244 152.554C125.244 149.751 127.431 147.479 130.128 147.479C132.825 147.479 135.012 149.751 135.012 152.554L135.015 152.558ZM196.771 152.558C196.77 155.361 194.583 157.632 191.885 157.631C189.188 157.63 187.002 155.357 187.003 152.554C187.003 149.751 189.19 147.479 191.887 147.479C194.584 147.479 196.771 149.751 196.771 152.554L196.771 152.558ZM258.53 152.558C258.53 155.362 256.342 157.636 253.643 157.635C250.943 157.634 248.756 155.359 248.759 152.554C248.759 149.75 250.946 147.477 253.644 147.477C256.342 147.477 258.53 149.75 258.53 152.554L258.53 152.558ZM320.289 152.558C320.289 155.362 318.101 157.636 315.402 157.635C312.702 157.634 310.515 155.359 310.518 152.554C310.518 149.751 312.704 147.479 315.402 147.479C318.099 147.479 320.285 149.751 320.285 152.554L320.289 152.558ZM382.048 152.558C382.048 155.362 379.86 157.636 377.16 157.635C374.461 157.634 372.274 155.359 372.277 152.554C372.277 149.751 374.463 147.479 377.16 147.479C379.858 147.479 382.044 149.751 382.044 152.554L382.048 152.558ZM443.803 152.558C443.803 155.361 441.617 157.633 438.919 157.633C436.222 157.633 434.035 155.361 434.035 152.558C434.035 149.755 436.222 147.483 438.919 147.483C441.617 147.483 443.803 149.755 443.803 152.558ZM505.562 152.558C505.562 155.361 503.376 157.633 500.678 157.633C497.981 157.633 495.794 155.361 495.794 152.558C495.794 149.755 497.981 147.483 500.678 147.483C503.376 147.483 505.562 149.755 505.562 152.558ZM567.324 152.558C567.325 155.362 565.136 157.636 562.437 157.635C559.738 157.634 557.551 155.359 557.553 152.554C557.553 149.75 559.74 147.477 562.439 147.477C565.137 147.477 567.324 149.75 567.324 152.554L567.324 152.558ZM629.083 152.558C629.083 155.362 626.895 157.636 624.196 157.635C621.497 157.634 619.31 155.359 619.312 152.554C619.312 149.751 621.498 147.479 624.196 147.479C626.893 147.479 629.08 149.751 629.08 152.554L629.083 152.558ZM690.842 152.558C690.841 155.362 688.652 157.635 685.953 157.634C683.254 157.634 681.067 155.359 681.068 152.554C681.068 149.75 683.255 147.477 685.953 147.477C688.651 147.477 690.839 149.75 690.839 152.554L690.842 152.558ZM752.598 152.558C752.597 155.361 750.409 157.632 747.712 157.631C745.015 157.63 742.829 155.357 742.83 152.554C742.83 149.751 745.016 147.479 747.714 147.479C750.411 147.479 752.598 149.751 752.598 152.554L752.598 152.558ZM814.356 152.558C814.357 155.362 812.168 157.636 809.469 157.635C806.77 157.634 804.583 155.359 804.585 152.554C804.585 149.75 806.773 147.477 809.471 147.477C812.169 147.477 814.356 149.75 814.356 152.554L814.356 152.558ZM135.015 217.594C135.015 220.398 132.828 222.67 130.13 222.67C127.431 222.67 125.244 220.398 125.244 217.594C125.244 214.791 127.431 212.519 130.128 212.519C132.825 212.519 135.012 214.791 135.012 217.594L135.015 217.594ZM196.771 217.594C196.771 220.397 194.584 222.669 191.887 222.669C189.19 222.669 187.003 220.397 187.003 217.594C187.003 214.791 189.19 212.519 191.887 212.519C194.584 212.519 196.771 214.791 196.771 217.594ZM258.53 217.594C258.53 220.398 256.342 222.67 253.644 222.67C250.946 222.67 248.759 220.398 248.759 217.594C248.759 214.79 250.946 212.517 253.644 212.517C256.342 212.517 258.53 214.79 258.53 217.594ZM320.289 217.594C320.289 220.398 318.101 222.67 315.403 222.67C312.705 222.67 310.518 220.398 310.518 217.594C310.518 214.791 312.704 212.519 315.402 212.519C318.099 212.519 320.285 214.791 320.285 217.594L320.289 217.594ZM382.048 217.594C382.048 220.398 379.86 222.67 377.162 222.67C374.464 222.67 372.277 220.398 372.277 217.594C372.277 214.791 374.463 212.519 377.16 212.519C379.858 212.519 382.044 214.791 382.044 217.594L382.048 217.594ZM443.803 217.594C443.803 220.397 441.617 222.669 438.919 222.669C436.222 222.669 434.035 220.397 434.035 217.594C434.035 214.791 436.222 212.519 438.919 212.519C441.617 212.519 443.803 214.791 443.803 217.594ZM505.562 217.594C505.562 220.397 503.376 222.669 500.678 222.669C497.981 222.669 495.794 220.397 495.794 217.594C495.794 214.791 497.981 212.519 500.678 212.519C503.376 212.519 505.562 214.791 505.562 217.594ZM567.324 217.594C567.324 220.398 565.137 222.67 562.439 222.67C559.74 222.67 557.553 220.398 557.553 217.594C557.553 214.79 559.74 212.517 562.439 212.517C565.137 212.517 567.324 214.79 567.324 217.594ZM629.083 217.594C629.083 220.398 626.896 222.67 624.197 222.67C621.499 222.67 619.312 220.398 619.312 217.594C619.312 214.791 621.498 212.519 624.196 212.519C626.893 212.519 629.08 214.791 629.08 217.594L629.083 217.594ZM690.842 217.594C690.843 220.399 688.654 222.674 685.955 222.674C683.255 222.674 681.067 220.399 681.068 217.594C681.068 214.79 683.255 212.517 685.953 212.517C688.651 212.517 690.839 214.79 690.839 217.594L690.842 217.594ZM752.598 217.594C752.598 220.397 750.411 222.669 747.714 222.669C745.016 222.669 742.83 220.397 742.83 217.594C742.83 214.791 745.016 212.519 747.714 212.519C750.411 212.519 752.598 214.791 752.598 217.594ZM814.356 217.594C814.356 220.398 812.169 222.67 809.471 222.67C806.773 222.67 804.585 220.398 804.585 217.594C804.585 214.79 806.773 212.517 809.471 212.517C812.169 212.517 814.356 214.79 814.356 217.594ZM135.015 282.633C135.015 285.436 132.829 287.708 130.131 287.708C127.434 287.708 125.247 285.436 125.247 282.633C125.247 279.83 127.434 277.558 130.131 277.558C132.829 277.558 135.015 279.83 135.015 282.633ZM196.771 282.633C196.771 285.436 194.584 287.708 191.887 287.708C189.19 287.708 187.003 285.436 187.003 282.633C187.003 279.83 189.19 277.558 191.887 277.558C194.584 277.558 196.771 279.83 196.771 282.633ZM258.53 282.633C258.53 285.436 256.343 287.708 253.646 287.708C250.949 287.708 248.762 285.436 248.762 282.633C248.762 279.83 250.949 277.558 253.646 277.558C256.343 277.558 258.53 279.83 258.53 282.633ZM320.289 282.633C320.289 285.436 318.102 287.708 315.405 287.708C312.707 287.708 310.521 285.436 310.521 282.633C310.521 279.83 312.707 277.558 315.405 277.558C318.102 277.558 320.289 279.83 320.289 282.633ZM382.048 282.633C382.048 285.436 379.861 287.708 377.164 287.708C374.466 287.708 372.28 285.436 372.28 282.633C372.28 279.83 374.466 277.558 377.164 277.558C379.861 277.558 382.048 279.83 382.048 282.633ZM443.803 282.633C443.869 284.489 442.954 286.234 441.417 287.183C439.881 288.132 437.968 288.132 436.431 287.185C434.893 286.237 433.977 284.493 434.042 282.636C434.137 279.907 436.293 277.746 438.921 277.745C441.549 277.744 443.706 279.904 443.803 282.633ZM505.562 282.633C505.628 284.489 504.713 286.234 503.176 287.183C501.64 288.132 499.727 288.132 498.19 287.185C496.652 286.237 495.736 284.493 495.801 282.636C495.896 279.907 498.052 277.746 500.68 277.745C503.308 277.744 505.465 279.904 505.562 282.633ZM567.324 282.633C567.324 285.436 565.138 287.708 562.44 287.708C559.743 287.708 557.556 285.436 557.556 282.633C557.556 279.83 559.743 277.558 562.44 277.558C565.138 277.558 567.324 279.83 567.324 282.633ZM629.083 282.633C629.083 285.436 626.896 287.708 624.199 287.708C621.502 287.708 619.315 285.436 619.315 282.633C619.315 279.83 621.502 277.558 624.199 277.558C626.896 277.558 629.083 279.83 629.083 282.633ZM690.842 282.633C690.842 285.436 688.655 287.708 685.958 287.708C683.261 287.708 681.074 285.436 681.074 282.633C681.074 279.83 683.261 277.558 685.958 277.558C688.655 277.558 690.842 279.83 690.842 282.633ZM752.598 282.633C752.598 285.436 750.411 287.708 747.714 287.708C745.016 287.708 742.83 285.436 742.83 282.633C742.83 279.83 745.016 277.558 747.714 277.558C750.411 277.558 752.598 279.83 752.598 282.633ZM814.356 282.633C814.356 285.436 812.17 287.708 809.472 287.708C806.775 287.708 804.589 285.436 804.589 282.633C804.589 279.83 806.775 277.558 809.472 277.558C812.17 277.558 814.356 279.83 814.356 282.633ZM135.015 347.676C135.016 350.481 132.827 352.754 130.128 352.753C127.429 352.752 125.242 350.477 125.244 347.672C125.244 344.869 127.431 342.597 130.128 342.597C132.825 342.597 135.012 344.869 135.012 347.672L135.015 347.676ZM196.771 347.676C196.77 350.479 194.583 352.75 191.885 352.749C189.188 352.748 187.002 350.475 187.003 347.672C187.003 344.869 189.19 342.597 191.887 342.597C194.584 342.597 196.771 344.869 196.771 347.672L196.771 347.676ZM258.53 347.676C258.53 350.481 256.342 352.754 253.643 352.753C250.943 352.752 248.756 350.477 248.759 347.672C248.759 344.869 250.946 342.596 253.644 342.596C256.342 342.596 258.53 344.868 258.53 347.672L258.53 347.676ZM320.289 347.676C320.289 350.481 318.101 352.754 315.402 352.753C312.702 352.752 310.515 350.477 310.518 347.672C310.518 344.869 312.704 342.597 315.402 342.597C318.099 342.597 320.285 344.869 320.285 347.672L320.289 347.676ZM382.048 347.676C382.048 350.481 379.86 352.754 377.16 352.753C374.461 352.752 372.274 350.477 372.277 347.672C372.277 344.869 374.463 342.597 377.16 342.597C379.858 342.597 382.044 344.869 382.044 347.672L382.048 347.676ZM443.803 347.676C443.803 350.479 441.617 352.751 438.919 352.751C436.222 352.751 434.035 350.479 434.035 347.676C434.035 344.873 436.222 342.601 438.919 342.601C441.617 342.601 443.803 344.873 443.803 347.676ZM505.562 347.676C505.562 350.479 503.376 352.751 500.678 352.751C497.981 352.751 495.794 350.479 495.794 347.676C495.794 344.873 497.981 342.601 500.678 342.601C503.376 342.601 505.562 344.873 505.562 347.676ZM567.324 347.676C567.325 350.481 565.136 352.754 562.437 352.753C559.738 352.752 557.551 350.477 557.553 347.672C557.553 344.869 559.74 342.596 562.439 342.596C565.137 342.596 567.324 344.868 567.324 347.672L567.324 347.676ZM629.083 347.676C629.083 350.481 626.895 352.754 624.196 352.753C621.497 352.752 619.31 350.477 619.312 347.672C619.312 344.869 621.498 342.597 624.196 342.597C626.893 342.597 629.08 344.869 629.08 347.672L629.083 347.676ZM690.842 347.676C690.841 350.481 688.652 352.753 685.953 352.753C683.254 352.752 681.067 350.477 681.068 347.672C681.068 344.869 683.255 342.596 685.953 342.596C688.651 342.596 690.839 344.868 690.839 347.672L690.842 347.676ZM752.598 347.676C752.597 350.479 750.409 352.75 747.712 352.749C745.015 352.748 742.829 350.475 742.83 347.672C742.83 344.869 745.016 342.597 747.714 342.597C750.411 342.597 752.598 344.869 752.598 347.672L752.598 347.676ZM814.356 347.676C814.357 350.481 812.168 352.754 809.469 352.753C806.77 352.752 804.583 350.477 804.585 347.672C804.585 344.869 806.773 342.596 809.471 342.596C812.169 342.596 814.356 344.868 814.356 347.672L814.356 347.676ZM135.015 412.715C135.015 415.518 132.829 417.79 130.131 417.79C127.434 417.79 125.247 415.518 125.247 412.715C125.247 409.912 127.434 407.64 130.131 407.64C132.829 407.64 135.015 409.912 135.015 412.715ZM196.771 412.715C196.771 415.518 194.584 417.79 191.887 417.79C189.19 417.79 187.003 415.518 187.003 412.715C187.003 409.912 189.19 407.64 191.887 407.64C194.584 407.64 196.771 409.912 196.771 412.715ZM258.53 412.715C258.53 415.518 256.343 417.79 253.646 417.79C250.949 417.79 248.762 415.518 248.762 412.715C248.762 409.912 250.949 407.64 253.646 407.64C256.343 407.64 258.53 409.912 258.53 412.715ZM320.289 412.715C320.289 415.518 318.102 417.79 315.405 417.79C312.707 417.79 310.521 415.518 310.521 412.715C310.521 409.912 312.707 407.64 315.405 407.64C318.102 407.64 320.289 409.912 320.289 412.715ZM382.048 412.715C382.048 415.518 379.861 417.79 377.164 417.79C374.466 417.79 372.28 415.518 372.28 412.715C372.28 409.912 374.466 407.64 377.164 407.64C379.861 407.64 382.048 409.912 382.048 412.715ZM443.803 412.715C443.868 414.571 442.953 416.316 441.416 417.264C439.879 418.213 437.966 418.213 436.429 417.264C434.892 416.316 433.977 414.571 434.042 412.715C434.138 409.986 436.295 407.825 438.923 407.825C441.55 407.825 443.707 409.986 443.803 412.715ZM505.562 412.715C505.627 414.571 504.712 416.316 503.175 417.264C501.638 418.213 499.725 418.213 498.188 417.264C496.651 416.316 495.736 414.571 495.801 412.715C495.897 409.986 498.054 407.825 500.681 407.825C503.309 407.825 505.466 409.986 505.562 412.715ZM567.324 412.715C567.324 415.518 565.138 417.79 562.44 417.79C559.743 417.79 557.556 415.518 557.556 412.715C557.556 409.912 559.743 407.64 562.44 407.64C565.138 407.64 567.324 409.912 567.324 412.715ZM629.083 412.715C629.083 415.518 626.896 417.79 624.199 417.79C621.502 417.79 619.315 415.518 619.315 412.715C619.315 409.912 621.502 407.64 624.199 407.64C626.896 407.64 629.083 409.912 629.083 412.715ZM690.842 412.715C690.842 415.518 688.655 417.79 685.958 417.79C683.261 417.79 681.074 415.518 681.074 412.715C681.074 409.912 683.261 407.64 685.958 407.64C688.655 407.64 690.842 409.912 690.842 412.715ZM752.598 412.715C752.598 415.518 750.411 417.79 747.714 417.79C745.016 417.79 742.83 415.518 742.83 412.715C742.83 409.912 745.016 407.64 747.714 407.64C750.411 407.64 752.598 409.912 752.598 412.715ZM814.356 412.715C814.356 415.518 812.17 417.79 809.472 417.79C806.775 417.79 804.589 415.518 804.589 412.715C804.589 409.912 806.775 407.64 809.472 407.64C812.17 407.64 814.356 409.912 814.356 412.715ZM135.015 477.754C135.016 480.559 132.827 482.833 130.128 482.832C127.429 482.831 125.242 480.556 125.244 477.751C125.245 474.948 127.432 472.677 130.13 472.678C132.827 472.679 135.013 474.951 135.012 477.754L135.015 477.754ZM196.771 477.754C196.77 480.557 194.583 482.829 191.885 482.828C189.188 482.827 187.002 480.554 187.003 477.751C187.004 474.948 189.191 472.677 191.889 472.678C194.586 472.679 196.772 474.951 196.771 477.754ZM258.53 477.754C258.53 480.559 256.342 482.833 253.643 482.832C250.943 482.831 248.756 480.556 248.759 477.751C248.761 474.948 250.949 472.677 253.646 472.678C256.343 472.679 258.529 474.952 258.53 477.754ZM320.289 477.754C320.289 480.559 318.101 482.833 315.402 482.832C312.702 482.831 310.515 480.556 310.518 477.751C310.518 474.948 312.706 472.677 315.403 472.678C318.1 472.679 320.286 474.951 320.285 477.754L320.289 477.754ZM382.048 477.754C382.048 480.559 379.86 482.833 377.16 482.832C374.461 482.831 372.274 480.556 372.277 477.751C372.277 474.948 374.465 472.677 377.162 472.678C379.859 472.679 382.045 474.951 382.044 477.754L382.048 477.754ZM443.803 477.754C443.803 480.557 441.617 482.83 438.919 482.83C436.222 482.83 434.035 480.557 434.035 477.754C434.035 474.951 436.222 472.679 438.919 472.679C441.617 472.679 443.803 474.951 443.803 477.754ZM505.562 477.754C505.562 480.557 503.376 482.83 500.678 482.83C497.981 482.83 495.794 480.557 495.794 477.754C495.794 474.951 497.981 472.679 500.678 472.679C503.376 472.679 505.562 474.951 505.562 477.754ZM567.324 477.754C567.325 480.559 565.136 482.833 562.437 482.832C559.738 482.831 557.551 480.556 557.553 477.751C557.555 474.948 559.743 472.677 562.44 472.678C565.138 472.679 567.324 474.952 567.324 477.754ZM629.083 477.754C629.083 480.559 626.895 482.833 624.196 482.832C621.497 482.831 619.31 480.556 619.312 477.751C619.313 474.948 621.5 472.677 624.197 472.678C626.895 472.679 629.081 474.951 629.08 477.754L629.083 477.754ZM690.842 477.754C690.841 480.559 688.652 482.832 685.953 482.831C683.254 482.83 681.067 480.556 681.068 477.751C681.07 474.948 683.257 472.677 685.955 472.678C688.652 472.679 690.838 474.952 690.839 477.754L690.842 477.754ZM752.598 477.754C752.597 480.557 750.409 482.829 747.712 482.828C745.015 482.827 742.829 480.554 742.83 477.751C742.831 474.948 745.018 472.677 747.715 472.678C750.413 472.679 752.599 474.951 752.598 477.754ZM814.356 477.754C814.357 480.559 812.168 482.833 809.469 482.832C806.77 482.831 804.583 480.556 804.585 477.751C804.587 474.948 806.775 472.677 809.472 472.678C812.17 472.679 814.356 474.952 814.356 477.754ZM135.015 542.794C135.016 545.599 132.827 547.872 130.128 547.871C127.429 547.87 125.242 545.595 125.244 542.79C125.244 539.988 127.431 537.715 130.128 537.715C132.825 537.715 135.012 539.988 135.012 542.79L135.015 542.794ZM196.771 542.794C196.77 545.597 194.583 547.868 191.885 547.867C189.188 547.866 187.002 545.593 187.003 542.79C187.003 539.988 189.19 537.715 191.887 537.715C194.584 537.715 196.771 539.988 196.771 542.79L196.771 542.794ZM258.53 542.794C258.53 545.599 256.342 547.872 253.643 547.871C250.943 547.87 248.756 545.595 248.759 542.79C248.759 539.987 250.946 537.714 253.644 537.714C256.342 537.714 258.53 539.987 258.53 542.79L258.53 542.794ZM320.289 542.794C320.289 545.599 318.101 547.872 315.402 547.871C312.702 547.87 310.515 545.595 310.518 542.79C310.518 539.988 312.704 537.715 315.402 537.715C318.099 537.715 320.285 539.988 320.285 542.79L320.289 542.794ZM382.048 542.794C382.048 545.599 379.86 547.872 377.16 547.871C374.461 547.87 372.274 545.595 372.277 542.79C372.277 539.988 374.463 537.715 377.16 537.715C379.858 537.715 382.044 539.988 382.044 542.79L382.048 542.794ZM443.803 542.794C443.803 545.597 441.617 547.869 438.919 547.869C436.222 547.869 434.035 545.597 434.035 542.794C434.035 539.991 436.222 537.719 438.919 537.719C441.617 537.719 443.803 539.991 443.803 542.794ZM505.562 542.794C505.562 545.597 503.376 547.869 500.678 547.869C497.981 547.869 495.794 545.597 495.794 542.794C495.794 539.991 497.981 537.719 500.678 537.719C503.376 537.719 505.562 539.991 505.562 542.794ZM567.324 542.794C567.325 545.599 565.136 547.872 562.437 547.871C559.738 547.87 557.551 545.595 557.553 542.79C557.553 539.987 559.74 537.714 562.439 537.714C565.137 537.714 567.324 539.987 567.324 542.79L567.324 542.794ZM629.083 542.794C629.083 545.599 626.895 547.872 624.196 547.871C621.497 547.87 619.31 545.595 619.312 542.79C619.312 539.988 621.498 537.715 624.196 537.715C626.893 537.715 629.08 539.988 629.08 542.79L629.083 542.794ZM690.842 542.794C690.841 545.599 688.652 547.872 685.953 547.871C683.254 547.87 681.067 545.595 681.068 542.79C681.068 539.987 683.255 537.714 685.953 537.714C688.651 537.714 690.839 539.987 690.839 542.79L690.842 542.794ZM752.598 542.794C752.597 545.597 750.409 547.868 747.712 547.867C745.015 547.866 742.829 545.593 742.83 542.79C742.83 539.988 745.016 537.715 747.714 537.715C750.411 537.715 752.598 539.988 752.598 542.79L752.598 542.794ZM814.356 542.794C814.357 545.599 812.168 547.872 809.469 547.871C806.77 547.87 804.583 545.595 804.585 542.79C804.585 539.987 806.773 537.714 809.471 537.714C812.169 537.714 814.356 539.987 814.356 542.79L814.356 542.794ZM135.015 607.83C135.015 610.633 132.829 612.905 130.131 612.905C127.434 612.905 125.247 610.633 125.247 607.83C125.247 605.027 127.434 602.755 130.131 602.755C132.829 602.755 135.015 605.027 135.015 607.83ZM196.771 607.83C196.771 610.633 194.584 612.905 191.887 612.905C189.19 612.905 187.003 610.633 187.003 607.83C187.003 605.027 189.19 602.755 191.887 602.755C194.584 602.755 196.771 605.027 196.771 607.83ZM258.53 607.83C258.53 610.633 256.343 612.905 253.646 612.905C250.949 612.905 248.762 610.633 248.762 607.83C248.762 605.027 250.949 602.755 253.646 602.755C256.343 602.755 258.53 605.027 258.53 607.83ZM320.289 607.83C320.289 610.633 318.102 612.905 315.405 612.905C312.707 612.905 310.521 610.633 310.521 607.83C310.521 605.027 312.707 602.755 315.405 602.755C318.102 602.755 320.289 605.027 320.289 607.83ZM382.048 607.83C382.048 610.633 379.861 612.905 377.164 612.905C374.466 612.905 372.28 610.633 372.28 607.83C372.28 605.027 374.466 602.755 377.164 602.755C379.861 602.755 382.048 605.027 382.048 607.83ZM443.803 607.83C443.87 609.686 442.955 611.431 441.419 612.381C439.882 613.33 437.97 613.331 436.432 612.384C434.895 611.437 433.978 609.693 434.042 607.837C434.136 605.107 436.291 602.945 438.919 602.943C441.547 602.941 443.706 605.101 443.803 607.83ZM505.562 607.83C505.629 609.686 504.714 611.431 503.178 612.381C501.641 613.33 499.729 613.331 498.191 612.384C496.654 611.437 495.737 609.693 495.801 607.837C495.895 605.107 498.05 602.945 500.678 602.943C503.306 602.941 505.464 605.101 505.562 607.83ZM567.324 607.83C567.324 610.633 565.138 612.905 562.44 612.905C559.743 612.905 557.556 610.633 557.556 607.83C557.556 605.027 559.743 602.755 562.44 602.755C565.138 602.755 567.324 605.027 567.324 607.83ZM629.083 607.83C629.083 610.633 626.896 612.905 624.199 612.905C621.502 612.905 619.315 610.633 619.315 607.83C619.315 605.027 621.502 602.755 624.199 602.755C626.896 602.755 629.083 605.027 629.083 607.83ZM690.842 607.83C690.842 610.633 688.655 612.905 685.958 612.905C683.261 612.905 681.074 610.633 681.074 607.83C681.074 605.027 683.261 602.755 685.958 602.755C688.655 602.755 690.842 605.027 690.842 607.83ZM752.598 607.83C752.598 610.633 750.411 612.905 747.714 612.905C745.016 612.905 742.83 610.633 742.83 607.83C742.83 605.027 745.016 602.755 747.714 602.755C750.411 602.755 752.598 605.027 752.598 607.83ZM814.356 607.83C814.356 610.633 812.17 612.905 809.472 612.905C806.775 612.905 804.589 610.633 804.589 607.83C804.589 605.027 806.775 602.755 809.472 602.755C812.17 602.755 814.356 605.027 814.356 607.83ZM135.015 672.872C135.016 675.677 132.827 677.951 130.128 677.95C127.429 677.949 125.242 675.674 125.244 672.869C125.244 670.066 127.431 667.794 130.128 667.794C132.825 667.794 135.012 670.066 135.012 672.869L135.015 672.872ZM196.771 672.872C196.77 675.675 194.583 677.947 191.885 677.946C189.188 677.945 187.002 675.672 187.003 672.869C187.003 670.066 189.19 667.794 191.887 667.794C194.584 667.794 196.771 670.066 196.771 672.869L196.771 672.872ZM258.53 672.872C258.53 675.677 256.342 677.951 253.643 677.95C250.943 677.949 248.756 675.674 248.759 672.869C248.759 670.065 250.946 667.792 253.644 667.792C256.342 667.792 258.53 670.065 258.53 672.869L258.53 672.872ZM320.289 672.872C320.289 675.677 318.101 677.951 315.402 677.95C312.702 677.949 310.515 675.674 310.518 672.869C310.518 670.066 312.704 667.794 315.402 667.794C318.099 667.794 320.285 670.066 320.285 672.869L320.289 672.872ZM382.048 672.872C382.048 675.677 379.86 677.951 377.16 677.95C374.461 677.949 372.274 675.674 372.277 672.869C372.277 670.066 374.463 667.794 377.16 667.794C379.858 667.794 382.044 670.066 382.044 672.869L382.048 672.872ZM443.803 672.872C443.803 675.675 441.617 677.948 438.919 677.948C436.222 677.948 434.035 675.675 434.035 672.872C434.035 670.07 436.222 667.797 438.919 667.797C441.617 667.797 443.803 670.07 443.803 672.872ZM505.562 672.872C505.562 675.675 503.376 677.948 500.678 677.948C497.981 677.948 495.794 675.675 495.794 672.872C495.794 670.07 497.981 667.797 500.678 667.797C503.376 667.797 505.562 670.07 505.562 672.872ZM567.324 672.872C567.325 675.677 565.136 677.951 562.437 677.95C559.738 677.949 557.551 675.674 557.553 672.869C557.553 670.065 559.74 667.792 562.439 667.792C565.137 667.792 567.324 670.065 567.324 672.869L567.324 672.872ZM629.083 672.872C629.083 675.677 626.895 677.951 624.196 677.95C621.497 677.949 619.31 675.674 619.312 672.869C619.312 670.066 621.498 667.794 624.196 667.794C626.893 667.794 629.08 670.066 629.08 672.869L629.083 672.872ZM690.842 672.872C690.841 675.677 688.652 677.95 685.953 677.949C683.254 677.948 681.067 675.674 681.068 672.869C681.068 670.065 683.255 667.792 685.953 667.792C688.651 667.792 690.839 670.065 690.839 672.869L690.842 672.872ZM752.598 672.872C752.597 675.675 750.409 677.947 747.712 677.946C745.015 677.945 742.829 675.672 742.83 672.869C742.83 670.066 745.016 667.794 747.714 667.794C750.411 667.794 752.598 670.066 752.598 672.869L752.598 672.872ZM814.356 672.872C814.357 675.677 812.168 677.951 809.469 677.95C806.77 677.949 804.583 675.674 804.585 672.869C804.585 670.065 806.773 667.792 809.471 667.792C812.169 667.792 814.356 670.065 814.356 672.869L814.356 672.872Z" fill="#0e1718" fill-rule="nonzero" opacity="1" stroke="none"/>
</g>
</svg>
