<?xml version="1.0" encoding="UTF-8" standalone="no"?>
<!DOCTYPE svg PUBLIC "-//W3C//DTD SVG 1.1//EN" "http://www.w3.org/Graphics/SVG/1.1/DTD/svg11.dtd">
<!-- Created with Vectornator (http://vectornator.io/) -->
<svg height="100%" stroke-miterlimit="10" style="fill-rule:nonzero;clip-rule:evenodd;stroke-linecap:round;stroke-linejoin:round;" version="1.1" viewBox="0 0 122.88 74.46" width="100%" xml:space="preserve" xmlns="http://www.w3.org/2000/svg" xmlns:vectornator="http://vectornator.io" xmlns:xlink="http://www.w3.org/1999/xlink">
<defs/>
<clipPath id="ArtboardFrame">
<rect height="74.46" width="122.88" x="0" y="0"/>
</clipPath>
<g clip-path="url(#ArtboardFrame)" id="Untitled" vectornator:layerName="Untitled">
<path d="M1.87 47.2C-0.616738 44.7371-0.635346 40.7244 1.82845 38.2385C4.29224 35.7526 8.30496 35.7354 10.79 38.2C19.67 47.05 28.32 55.86 37.32 64.65L33.56 69.1L33.21 69.47C30.7382 71.9407 26.7318 71.9407 24.26 69.47L1.87 47.2ZM30 43.55C28.2802 41.9969 27.5465 39.6283 28.0873 37.375C28.628 35.1218 30.3567 33.344 32.594 32.7406C34.8313 32.1371 37.2195 32.8043 38.82 34.48L63.82 58.86L111.64 2.29C117.01-4.06 126.64 4.13 121.3 10.47L69.07 72.22L68.77 72.55C66.3315 75.0542 62.3248 75.1079 59.82 72.67L30 43.55ZM58.76 39.34L58.45 39.67L49.38 30.82L71.67 4.42C77.04-1.93 86.67 6.25 81.34 12.6L58.74 39.34L58.76 39.34Z" fill="#fbfdff" fill-rule="evenodd" opacity="1" stroke="none"/>
</g>
</svg>
