<?xml version="1.0" encoding="UTF-8" standalone="no"?>
<!DOCTYPE svg PUBLIC "-//W3C//DTD SVG 1.1//EN" "http://www.w3.org/Graphics/SVG/1.1/DTD/svg11.dtd">
<!-- Created with Vectornator (http://vectornator.io/) -->
<svg height="100%" stroke-miterlimit="10" style="fill-rule:nonzero;clip-rule:evenodd;stroke-linecap:round;stroke-linejoin:round;" version="1.1" viewBox="0 0 384.97 384.97" width="100%" xml:space="preserve" xmlns="http://www.w3.org/2000/svg" xmlns:vectornator="http://vectornator.io" xmlns:xlink="http://www.w3.org/1999/xlink">
<defs/>
<g id="Untitled" vectornator:layerName="Untitled">
<g opacity="1">
<path d="M12.03 120.303L372.939 120.303C379.58 120.303 384.969 114.913 384.969 108.273C384.969 101.632 379.579 96.243 372.939 96.243L12.03 96.243C5.389 96.243 0 101.633 0 108.273C0 114.913 5.39 120.303 12.03 120.303Z" fill="#ffffff" fill-rule="nonzero" opacity="1" stroke="none"/>
<path d="M372.939 180.455L12.03 180.455C5.389 180.455 0 185.845 0 192.485C0 199.125 5.39 204.515 12.03 204.515L372.939 204.515C379.58 204.515 384.969 199.125 384.969 192.485C384.969 185.845 379.58 180.455 372.939 180.455Z" fill="#ffffff" fill-rule="nonzero" opacity="1" stroke="none"/>
<path d="M372.939 264.667L132.333 264.667C125.692 264.667 120.303 270.057 120.303 276.697C120.303 283.338 125.693 288.727 132.333 288.727L372.939 288.727C379.58 288.727 384.969 283.337 384.969 276.697C384.97 270.056 379.58 264.667 372.939 264.667Z" fill="#ffffff" fill-rule="nonzero" opacity="1" stroke="none"/>
</g>
</g>
</svg>
